<?xml version="1.0" encoding="utf-8"?>
<!-- Generator: Adobe Illustrator 15.1.0, SVG Export Plug-In . SVG Version: 6.00 Build 0)  -->
<!DOCTYPE svg PUBLIC "-//W3C//DTD SVG 1.1//EN" "http://www.w3.org/Graphics/SVG/1.1/DTD/svg11.dtd">
<svg version="1.1" id="Layer_1" xmlns="http://www.w3.org/2000/svg" xmlns:xlink="http://www.w3.org/1999/xlink" x="0px" y="0px"
	 width="1024px" height="1000px" viewBox="0 0 1024 1000" enable-background="new 0 0 1024 1000" xml:space="preserve">
<g>
	<g>
		<circle fill="#27AAE1" cx="399.418" cy="79.977" r="16.331"/>
	</g>
	<path fill="#E6E7E8" d="M410.752,91.311c-6.25,6.249-16.418,6.249-22.668,0c-6.248-6.249-6.248-16.417,0.001-22.666
		s16.417-6.25,22.666,0C417.001,74.894,417.001,85.062,410.752,91.311 M416.919,97.479c9.665-9.665,9.665-25.336-0.001-35.002
		c-9.665-9.665-25.335-9.665-35,0s-9.666,25.336-0.001,35C391.583,107.144,407.254,107.144,416.919,97.479L416.919,97.479z"/>
	<path fill="#ACD1E2" d="M7.697-65.106c3.785-3.785,9.921-3.785,13.705,0L179.684,93.175c5.483,5.483,11.019,8.146,16.924,8.139
		c10.11-0.012,18.556-8.042,18.636-8.123l49.44-49.44C273.829,34.607,284.112,29.98,295.25,30
		c18.161,0.031,31.115,12.548,32.532,13.975c0.771,0.771,7.845,8.058,11.54,19.122c5.194,15.552,1.1,31.071-11.528,43.699
		c-7.343,7.344-9.64,15.05-7.019,23.56c2.126,6.904,6.718,11.911,7.091,12.311l50.573,50.573c7.301,7.301,14.936,9.587,23.339,6.99
		c6.871-2.124,11.833-6.732,12.166-7.047l24.626-24.627c7.389-7.388,9.705-15.089,7.079-23.544
		c-2.159-6.952-6.864-11.948-7.118-12.215l-45.965-45.964c-3.784-3.785-3.784-9.921,0-13.706c3.785-3.785,9.921-3.785,13.705,0
		l46.005,46.004c0.805,0.807,7.898,8.131,11.599,19.248c5.198,15.62,1.079,31.204-11.599,43.881l-24.716,24.716
		c-0.797,0.79-8.107,7.821-19.177,11.488c-15.563,5.155-31.065,1.064-43.649-11.521l-50.7-50.7
		c-0.791-0.804-7.832-8.172-11.503-19.307c-5.164-15.658-1.059-31.23,11.558-43.846c7.33-7.33,9.625-14.966,7.015-23.343
		c-2.11-6.771-6.655-11.672-7.063-12.103c-0.438-0.417-5.37-5.023-12.182-7.178c-8.423-2.664-16.1-0.377-23.467,6.991
		l-49.425,49.424c-1.399,1.409-14.253,13.794-32.335,13.815c-11.159,0.013-21.471-4.635-30.651-13.815L7.697-51.401
		C3.913-55.186,3.913-61.321,7.697-65.106z"/>
	<path fill="#ACD1E2" d="M-115.307,71.604l13.705-13.705L92.917,252.417c2.662,2.661,5.337,5.377,7.925,8.003
		c5.137,5.211,10.448,10.601,15.766,15.688c7.661,7.326,11.179,17.981,9.182,27.806c-1.933,9.508-8.251,15.824-13.319,20.882
		l-16.993,16.992l-24.733,24.733c-0.343,0.342-0.684,0.678-1.021,1.009c-2.473,2.429-2.684,2.801-2.691,3.321
		c-0.053,4.192,5.639,9.527,10.213,13.814c1.256,1.178,2.556,2.396,3.762,3.603l75.648,75.648l-13.706,13.705l-75.648-75.648
		c-0.984-0.984-2.115-2.044-3.312-3.167c-6.962-6.526-16.498-15.464-16.338-28.199c0.109-8.678,5.156-13.623,8.493-16.909
		c0.296-0.289,0.594-0.583,0.894-0.882l41.734-41.733c3.898-3.891,7.254-7.247,8.023-11.03c0.652-3.208-0.821-7.295-3.584-9.938
		c-5.525-5.285-10.938-10.778-16.174-16.09c-2.563-2.602-5.214-5.291-7.825-7.902L-115.307,71.604z"/>
	<path fill="#ACD1E2" d="M171.108,492.395c-5.425,5.425-14.22,5.425-19.645,0c-5.424-5.425-5.424-14.22,0-19.644
		c5.425-5.425,14.219-5.426,19.644-0.001S176.532,486.971,171.108,492.395 M184.813,506.1c12.973-12.973,12.973-34.081,0-47.055
		c-12.973-12.973-34.081-12.973-47.055,0.001c-12.973,12.973-12.973,34.081,0,47.054C150.731,519.073,171.84,519.073,184.813,506.1
		L184.813,506.1z"/>
	<g>
		<circle fill="#FFDE17" cx="161.285" cy="482.572" r="13.891"/>
		<path fill="#00AEEF" d="M164.255,485.542c-1.638,1.638-4.302,1.638-5.94,0c-1.637-1.637-1.637-4.302,0-5.939
			c1.638-1.637,4.302-1.637,5.939,0C165.893,481.24,165.893,483.905,164.255,485.542 M171.108,492.395
			c5.424-5.424,5.424-14.22,0-19.645s-14.219-5.424-19.644,0.001c-5.425,5.424-5.425,14.219,0,19.644
			C156.888,497.819,165.683,497.819,171.108,492.395L171.108,492.395z"/>
	</g>
	<path fill="#ACD1E2" d="M-91.352,47.648l13.706-13.705l257.901,257.901c1.849,1.797,14.463,14.706,14.651,32.667
		c0.115,11.002-4.399,21.153-13.417,30.171l-98.767,98.767c-0.324,0.332-5.107,5.314-7.354,12.239
		c-2.739,8.442-0.465,16.151,6.952,23.568l73.666,73.666l-13.706,13.705l-73.666-73.665c-9.195-9.195-13.825-19.523-13.761-30.697
		c0.103-18.074,12.577-30.979,14.25-32.608l98.681-98.68c5.269-5.269,7.801-10.588,7.741-16.263
		c-0.106-10.201-8.687-18.883-8.773-18.966l-0.145-0.142L-91.352,47.648z"/>
	<path fill="#ACD1E2" d="M164.323,584.965c-2.964,2.965-7.771,2.965-10.736-0.001c-2.964-2.964-2.964-7.771,0-10.734
		c2.964-2.965,7.771-2.966,10.735-0.001C167.287,577.193,167.287,582,164.323,584.965 M178.028,598.67
		c10.517-10.518,10.517-27.629,0-38.146c-10.517-10.517-27.628-10.517-38.146,0c-10.517,10.518-10.517,27.629,0,38.146
		C150.398,609.187,167.511,609.188,178.028,598.67L178.028,598.67z"/>
	<g>
		<circle fill="#FFDE17" cx="158.954" cy="579.597" r="18.575"/>
	</g>
	<path fill="#ACD1E2" d="M-66.339,22.636l13.705-13.705l479.601,479.601c0.824,0.828,8.029,8.277,11.9,19.493
		c5.477,15.869,1.508,31.592-11.176,44.275c-12.651,12.651-28.192,16.761-43.76,11.571c-11.08-3.693-18.376-10.775-19.171-11.571
		l-0.005-0.004c-0.049-0.049-5.034-4.92-12.062-7.123c-8.362-2.622-16.033-0.291-23.451,7.127
		c-7.585,7.585-9.894,15.463-7.056,24.081c2.22,6.743,6.782,11.509,6.827,11.554l73.976,73.976c0.255,0.243,5.27,4.984,12.246,7.17
		c8.46,2.65,16.158,0.353,23.534-7.023l49.453-49.453c1.369-1.393,14.178-13.786,32.202-13.828
		c11.112-0.025,21.384,4.598,30.528,13.742L674.5,736.065l-13.705,13.705L537.248,626.223c-5.441-5.44-10.93-8.079-16.778-8.065
		c-10.029,0.023-18.413,8.023-18.51,8.119l0,0l-49.485,49.485c-12.679,12.68-28.273,16.774-43.912,11.529
		c-11.118-3.729-18.447-10.845-19.246-11.644l-74.008-74.008c-0.795-0.796-7.876-8.091-11.532-19.198
		c-5.125-15.566-0.948-31.139,11.761-43.847c9.231-9.231,19.582-13.892,30.764-13.853c17.76,0.062,30.408,12.092,32.138,13.825
		c0.31,0.295,5.258,4.943,12.134,7.081c8.397,2.61,16.057,0.304,23.414-7.054c7.332-7.332,9.531-15.101,6.725-23.75
		c-2.321-7.157-7.202-12.348-7.49-12.648L-66.339,22.636z"/>
	<path fill="#ACD1E2" d="M400.218,524.826c-2.333,2.333-6.117,2.334-8.451,0c-2.335-2.334-2.334-6.118,0-8.452s6.118-2.334,8.451,0
		C402.553,518.708,402.553,522.491,400.218,524.826 M407.071,531.679c6.108-6.109,6.108-16.049,0-22.157
		c-6.109-6.109-16.049-6.109-22.157,0c-6.109,6.108-6.109,16.048,0,22.157C391.022,537.787,400.962,537.787,407.071,531.679
		L407.071,531.679z"/>
	<path fill="#E6E7E8" d="M293.891,518.544c9.792-9.792,22.089-16.525,35.562-19.473c13.105-2.867,26.714-2.047,39.355,2.371
		c5.053,1.766,7.717,7.293,5.95,12.346c-1.765,5.053-7.293,7.717-12.346,5.951c-19.044-6.656-40.561-1.746-54.817,12.51
		c-20.593,20.594-20.595,54.101-0.002,74.693c2.557,2.558,5.369,4.852,8.358,6.818c4.471,2.942,5.71,8.952,2.767,13.423
		c-2.942,4.469-8.952,5.71-13.423,2.767c-4.085-2.688-7.923-5.818-11.408-9.303C265.739,592.498,265.74,546.694,293.891,518.544z"/>
	<path fill="#ACD1E2" d="M690.147,765.417c-5.425,5.425-14.22,5.425-19.645,0c-5.425-5.424-5.425-14.22,0-19.645
		c5.424-5.424,14.22-5.425,19.645,0S695.572,759.993,690.147,765.417 M696.999,772.27c9.195-9.194,9.195-24.155,0-33.35
		c-9.193-9.194-24.154-9.194-33.349,0s-9.194,24.155,0,33.35S687.806,781.464,696.999,772.27L696.999,772.27z"/>
	<path fill="#ACD1E2" d="M-41.67-2.034l13.705-13.705l357.031,357.032c0.253,0.241,5.234,4.949,12.175,7.107
		c8.427,2.62,16.111,0.306,23.492-7.075c12.669-12.669,28.218-16.803,43.781-11.639c11.088,3.679,18.382,10.758,19.177,11.554
		l73.83,73.83c0.801,0.8,7.928,8.141,11.673,19.269c5.27,15.661,1.188,31.271-11.494,43.953c-7.381,7.381-9.695,15.065-7.075,23.491
		c2.158,6.94,6.865,11.923,7.107,12.175l148.093,148.093c0.207,0.2,5.106,4.887,11.979,7.004c8.337,2.568,16.001,0.204,23.432-7.227
		l24.796-24.796c0.217-0.223,4.94-5.142,7.104-12.02c2.618-8.321,0.309-15.948-7.06-23.316l-49.225-49.225l13.705-13.705
		l49.226,49.225c9.188,9.188,13.826,19.495,13.787,30.636c-0.062,17.883-12.318,30.575-13.86,32.139l-24.768,24.768
		c-9.259,9.258-19.63,13.938-30.825,13.913c-17.958-0.042-30.637-12.317-32.022-13.717L487.995,527.631
		c-0.797-0.797-7.893-8.105-11.593-19.206c-5.198-15.596-1.082-31.164,11.593-43.838c7.516-7.516,9.749-15.389,6.829-24.065
		c-2.3-6.835-6.962-11.7-7.008-11.746l-73.797-73.797c-0.251-0.241-5.209-4.924-12.121-7.061c-8.402-2.599-16.076-0.271-23.46,7.112
		c-12.674,12.675-28.242,16.791-43.838,11.593c-11.101-3.7-18.409-10.795-19.207-11.593L-41.67-2.034z"/>
	<path fill="#ACD1E2" d="M661.252,539.167c-2.965,2.964-7.771,2.964-10.736,0c-2.965-2.965-2.964-7.771,0-10.736
		c2.965-2.965,7.771-2.965,10.736,0S664.217,536.202,661.252,539.167 M674.957,552.872c10.517-10.518,10.517-27.63,0-38.146
		c-10.517-10.518-27.63-10.518-38.146,0c-10.518,10.517-10.518,27.629,0,38.146C647.327,563.389,664.44,563.389,674.957,552.872
		L674.957,552.872z"/>
	<g>
		<circle fill="#8DC63F" cx="655.884" cy="533.799" r="7.592"/>
	</g>
	<g>
		<path fill="#2BB673" d="M651.145,726.415c16.09-16.09,42.271-16.09,58.36,0s16.09,42.271,0,58.359
			c-16.09,16.091-42.271,16.09-58.36,0c-1.892-1.892-1.892-4.96,0-6.853c1.893-1.892,4.961-1.892,6.854,0
			c12.311,12.312,32.343,12.312,44.654,0.001c12.311-12.312,12.311-32.344,0-44.655c-12.312-12.312-32.344-12.312-44.655,0
			c-1.892,1.893-4.96,1.893-6.853,0C649.253,731.375,649.253,728.307,651.145,726.415z"/>
		<g>
			<polygon fill="#2BB673" points="663.806,776.313 644.205,771.062 649.456,790.663 			"/>
		</g>
	</g>
	<path fill="#E6E7E8" d="M681.295,559.21c-14.033,14.033-36.788,14.034-50.822,0c-14.034-14.035-14.033-36.789,0-50.822
		c14.033-14.034,36.788-14.035,50.822,0C695.329,522.422,695.328,545.176,681.295,559.21 M687.462,565.377
		c17.413-17.412,17.413-45.744,0-63.156c-17.412-17.413-45.744-17.413-63.156,0c-17.413,17.412-17.413,45.744,0,63.156
		C641.718,582.79,670.05,582.79,687.462,565.377L687.462,565.377z"/>
	<path fill="#ACD1E2" d="M-140.348,96.645l13.705-13.706L255.12,464.701c0.794,0.795,7.869,8.083,11.541,19.166
		c5.152,15.554,1.013,31.096-11.655,43.764l-24.593,24.593c-0.399,0.429-4.94,5.41-7.042,12.27
		c-2.6,8.486-0.302,16.173,7.022,23.498l221.822,221.821c0.254,0.243,5.269,4.984,12.245,7.17c8.46,2.65,16.158,0.353,23.534-7.023
		l24.67-24.67c1.377-1.368,14.178-13.786,32.235-13.828c11.165-0.025,21.492,4.627,30.694,13.828l-13.706,13.705
		c-7.397-7.397-15.064-9.721-23.438-7.103c-7.041,2.201-12.041,7.064-12.091,7.114L501.7,823.664
		c-12.68,12.68-28.274,16.774-43.912,11.529c-11.118-3.729-18.448-10.845-19.247-11.644L216.688,601.696
		c-12.591-12.591-16.7-28.131-11.57-43.76c3.648-11.116,10.662-18.476,11.45-19.277l0.449-0.449l24.284-24.284
		c7.385-7.385,9.716-15.056,7.126-23.449c-2.13-6.903-6.805-11.853-7.045-12.104L-140.348,96.645z"/>
	<path fill="#ACD1E2" d="M590.555,813.842c-5.677,5.676-14.88,5.676-20.557,0c-5.676-5.677-5.676-14.88,0-20.557
		c5.677-5.677,14.88-5.677,20.557,0S596.231,808.165,590.555,813.842 M597.407,820.694c9.446-9.446,9.446-24.816,0-34.262
		c-9.446-9.446-24.815-9.446-34.262,0c-9.446,9.445-9.446,24.815,0,34.262S587.961,830.141,597.407,820.694L597.407,820.694z"/>
	<path fill="#ACD1E2" d="M403.149,760.748c0.05,0.049,5.046,4.861,12.078,7.022c8.377,2.576,16.04,0.237,23.428-7.15l49.34-49.339
		c1.374-1.374,14.18-13.786,32.235-13.828c11.165-0.025,21.492,4.626,30.693,13.828l-13.705,13.705
		c-7.397-7.397-15.064-9.721-23.438-7.103c-7.041,2.201-12.042,7.064-12.092,7.113l0.043-0.043l-49.371,49.371
		c-12.665,12.665-28.193,16.815-43.726,11.687c-11.074-3.657-18.354-10.722-19.146-11.515l13.705-13.705L403.149,760.748z"/>
	<path fill="#ACD1E2" d="M554.065,728.128c-2.334,2.334-6.118,2.334-8.452,0s-2.334-6.119,0-8.452c2.334-2.334,6.118-2.334,8.452,0
		S556.399,725.794,554.065,728.128 M560.918,734.98c6.108-6.109,6.108-16.049,0-22.157c-6.109-6.109-16.049-6.109-22.157,0
		c-6.108,6.108-6.108,16.048,0,22.157C544.869,741.089,554.809,741.089,560.918,734.98L560.918,734.98z"/>
	<path fill="#C2B59B" d="M563.602,737.664c-7.601,7.602-19.925,7.602-27.525,0.001c-7.601-7.602-7.601-19.925,0-27.526
		c7.602-7.601,19.926-7.602,27.526,0C571.203,717.739,571.203,730.063,563.602,737.664 M567.028,741.091
		c9.479-9.479,9.479-24.9,0.001-34.379c-9.479-9.478-24.901-9.478-34.379,0c-9.479,9.479-9.479,24.9-0.001,34.379
		C542.128,750.569,557.551,750.569,567.028,741.091L567.028,741.091z"/>
	<path fill="#ACD1E2" d="M-17-26.703l13.705-13.705l184.343,184.343c0.225,0.216,5.191,4.919,12.124,7.063
		c8.402,2.598,16.075,0.271,23.459-7.113c12.678-12.678,28.267-16.778,43.893-11.545c11.114,3.722,18.438,10.833,19.237,11.631
		l49.167,49.167c0.799,0.798,7.903,8.116,11.608,19.233c5.206,15.616,1.083,31.205-11.608,43.896
		c-5.49,5.49-8.154,11.029-8.144,16.934c0.017,9.873,7.698,18.146,8.105,18.573c0.403,0.381,5.356,4.959,12.2,7.078
		c8.444,2.615,16.123,0.312,23.473-7.037l49.41-49.41c0.806-0.788,8.187-7.809,19.323-11.47
		c15.666-5.149,31.229-1.051,43.821,11.541l123.347,123.347c0.818,0.823,7.886,8.154,11.558,19.275
		c5.157,15.615,1.022,31.189-11.644,43.854l-13.705-13.705c7.39-7.39,9.715-15.096,7.108-23.558
		c-2.137-6.94-6.807-11.933-7.076-12.216L463.411,256.182c-7.467-7.466-15.338-9.701-24.063-6.833
		c-6.693,2.2-11.522,6.632-11.801,6.893l-49.28,49.279c-12.635,12.635-28.188,16.742-43.792,11.564
		c-11.103-3.684-18.429-10.748-19.228-11.541c-1.414-1.404-13.814-14.238-13.845-32.309c-0.02-11.163,4.631-21.482,13.821-30.673
		c7.543-7.544,9.809-15.414,6.926-24.062c-2.264-6.792-6.88-11.611-6.926-11.657l-49.136-49.136
		c-0.267-0.256-5.269-4.978-12.227-7.153c-8.452-2.643-16.146-0.341-23.524,7.037c-12.669,12.669-28.218,16.803-43.782,11.639
		c-11.087-3.678-18.381-10.758-19.176-11.554L-17-26.703z"/>
	<path fill="#ACD1E2" d="M589.185,437.177c-2.964,2.965-7.771,2.965-10.735,0s-2.965-7.771,0-10.736
		c2.965-2.964,7.771-2.965,10.735,0C592.15,429.405,592.149,434.212,589.185,437.177 M602.89,450.882
		c10.518-10.518,10.518-27.63,0-38.146c-10.517-10.518-27.629-10.518-38.146,0c-10.518,10.517-10.518,27.629,0,38.146
		C575.261,461.398,592.373,461.398,602.89,450.882L602.89,450.882z"/>
	<path fill="#E6E7E8" d="M421.918,102.478c-12.406,12.406-32.594,12.406-45-0.001c-12.406-12.405-12.405-32.591,0.001-44.998
		c12.406-12.407,32.593-12.407,44.998-0.001C434.324,69.884,434.324,90.071,421.918,102.478 M428.085,108.645
		c15.832-15.832,15.832-41.501-0.001-57.334c-15.832-15.833-41.5-15.831-57.332,0.001s-15.834,41.5-0.002,57.333
		C386.584,124.477,412.254,124.477,428.085,108.645L428.085,108.645z"/>
	<path fill="#E6E7E8" d="M589.921,319.818c1.893-1.892,4.96-1.892,6.853,0l49.517,49.517c1.892,1.893,1.892,4.961,0,6.854
		c-1.893,1.892-4.96,1.892-6.853,0l-49.517-49.517C588.028,324.779,588.028,321.712,589.921,319.818z"/>
	<path fill="#E6E7E8" d="M658.446,388.345c1.893-1.892,4.961-1.892,6.854,0l20.735,20.736c1.893,1.892,1.893,4.96,0,6.853
		c-1.893,1.892-4.96,1.892-6.853,0l-20.736-20.735C656.555,393.306,656.555,390.237,658.446,388.345z"/>
	<path fill="#E6E7E8" d="M699.562,429.461c1.893-1.893,4.96-1.893,6.853,0l10.368,10.367c1.892,1.893,1.892,4.961,0,6.854
		c-1.893,1.892-4.961,1.892-6.853,0l-10.368-10.368C697.67,434.421,697.67,431.353,699.562,429.461z"/>
	<g>
		<path fill="#E6E7E8" d="M730.399,460.298c1.893-1.893,4.96-1.893,6.853,0l4.461,4.461c1.893,1.892,1.893,4.96,0,6.852
			c-1.893,1.893-4.961,1.893-6.854,0l-4.46-4.46C728.507,465.258,728.507,462.189,730.399,460.298z"/>
		<g>
			<polygon fill="#E6E7E8" points="729.491,472.98 748.159,477.982 743.158,459.313 			"/>
		</g>
	</g>
	<g>
		<path fill="#E6E7E8" d="M463.268,45.093c12.668-12.668,28.249-16.759,43.873-11.519c11.107,3.726,18.43,10.834,19.229,11.633
			l-13.705,13.706l0.042,0.042c-0.051-0.049-5.122-4.94-12.237-7.168c-8.446-2.646-16.132-0.352-23.496,7.013
			c-7.516,7.516-9.771,15.376-6.896,24.029c2.26,6.799,6.867,11.631,6.912,11.677l24.654,24.654
			c12.668,12.668,16.798,28.241,11.627,43.849c-3.683,11.114-10.76,18.438-11.554,19.236l-24.686,24.685
			c-3.784,3.785-9.921,3.785-13.705,0c-3.785-3.785-3.785-9.92,0-13.705l24.624-24.624c0.278-0.293,4.946-5.275,7.085-12.2
			c2.611-8.451,0.29-16.149-7.097-23.536L463.273,108.2c-0.816-0.821-7.897-8.148-11.59-19.26
			C446.494,73.324,450.608,57.752,463.268,45.093z"/>
		<g>
			<polygon fill="#E6E7E8" points="496.65,64.528 545.186,77.534 532.184,28.995 			"/>
		</g>
	</g>
	<g>
		<path fill="#E6E7E8" d="M152.102,572.744c3.785-3.785,9.921-3.785,13.706,0c3.785,3.784,3.785,9.92,0,13.705l-73.953,73.952
			c-0.322,0.341-4.962,5.338-7.102,12.259c-2.622,8.479-0.317,16.181,7.046,23.545c7.507,7.507,15.376,9.759,24.056,6.883
			c6.822-2.26,11.678-6.868,11.724-6.914l24.648-24.649c0.801-0.791,8.142-7.837,19.25-11.512
			c15.619-5.166,31.168-1.063,43.783,11.552c12.629,12.629,16.701,28.168,11.466,43.753c-3.652,10.873-10.552,18.11-11.558,19.126
			c-0.217,0.227-4.949,5.243-7.116,12.232c-2.624,8.46-0.312,16.159,7.066,23.538c24.368,24.368,73.703,73.561,74.198,74.055
			c3.79,3.779,3.798,9.916,0.019,13.706c-0.002,0.003-0.006,0.007-0.01,0.01c-3.78,3.78-9.908,3.786-13.695,0.01
			c-0.496-0.494-49.84-49.697-74.218-74.075c-12.665-12.665-16.781-28.244-11.59-43.867c3.661-11.016,10.649-18.313,11.55-19.224
			c0.129-0.134,4.939-5.162,7.145-12.189c2.637-8.404,0.359-16.048-6.962-23.369c-7.479-7.479-15.326-9.721-23.991-6.854
			c-6.704,2.218-11.509,6.702-11.706,6.889l-24.607,24.606c-0.833,0.826-8.178,7.892-19.302,11.576
			c-15.636,5.18-31.211,1.069-43.856-11.576s-16.756-28.22-11.576-43.856c3.685-11.123,10.75-18.469,11.544-19.27L152.102,572.744z"
			/>
		<g>
			<polygon fill="#E6E7E8" points="262.261,862.19 305.213,873.634 293.648,830.712 			"/>
		</g>
	</g>
	<g>
		<path fill="#ACD1E2" d="M264.536,730.291c16.216-16.217,42.602-16.217,58.818,0c16.217,16.216,16.217,42.602,0,58.817
			c-16.216,16.217-42.603,16.217-58.818,0c-3.785-3.784-3.785-9.92,0-13.705c3.785-3.784,9.92-3.784,13.705,0
			c8.659,8.659,22.749,8.66,31.408,0c8.659-8.659,8.659-22.748,0-31.407s-22.749-8.66-31.408,0c-3.785,3.784-9.92,3.784-13.705,0
			C260.751,740.211,260.751,734.075,264.536,730.291z"/>
		<g>
			<polygon fill="#ACD1E2" points="291.616,748.173 248.681,759.678 260.183,716.739 			"/>
		</g>
	</g>
	<g>
		<path fill="#E6E7E8" d="M563.107,250.62c9.985-9.985,26.232-9.985,36.218,0c1.893,1.893,1.893,4.961,0,6.853
			c-1.893,1.893-4.961,1.893-6.853,0c-6.207-6.206-16.307-6.206-22.513,0c-6.206,6.207-6.207,16.306,0,22.513
			c6.206,6.207,16.306,6.207,22.513,0c1.892-1.893,4.96-1.893,6.853,0s1.893,4.96,0,6.853c-9.985,9.985-26.232,9.985-36.218,0
			S553.122,260.605,563.107,250.62z"/>
		<g>
			<polygon fill="#E6E7E8" points="585.785,277.897 607.253,272.145 601.501,293.613 			"/>
		</g>
	</g>
	<path fill="#E6E7E8" d="M349.711,796.622c2.838-2.839,7.44-2.839,10.279,0l20.735,20.735c2.839,2.838,2.839,7.44,0,10.278
		c-2.839,2.839-7.44,2.839-10.279,0L349.711,806.9C346.872,804.062,346.872,799.46,349.711,796.622z"/>
	<path fill="#E6E7E8" d="M390.826,837.737c2.839-2.839,7.441-2.839,10.279,0l10.367,10.368c2.839,2.838,2.839,7.44,0,10.278
		c-2.838,2.839-7.44,2.839-10.278,0l-10.368-10.367C387.988,845.178,387.988,840.575,390.826,837.737z"/>
	<g>
		<path fill="#E6E7E8" d="M418.237,865.147c2.838-2.838,7.44-2.838,10.278,0l7.888,7.888c2.838,2.838,2.838,7.44,0,10.278
			c-2.839,2.839-7.44,2.839-10.279,0l-7.887-7.887C415.398,872.589,415.398,867.986,418.237,865.147z"/>
		<g>
			<polygon fill="#E6E7E8" points="418.071,885.367 446.072,892.871 438.571,864.868 			"/>
		</g>
	</g>
	<g>
		<path fill="#ACD1E2" d="M531.695,483.618c3.784-3.785,9.92-3.785,13.705,0l24.626,24.626c3.785,3.785,3.785,9.921,0,13.706
			c-3.784,3.784-9.92,3.784-13.705,0l-24.626-24.627C527.91,493.538,527.91,487.402,531.695,483.618z"/>
		<path fill="#ACD1E2" d="M531.695,508.244l24.626-24.626c3.785-3.785,9.921-3.785,13.705,0c3.785,3.784,3.785,9.92,0,13.705
			L545.4,521.95c-3.785,3.784-9.921,3.784-13.705,0C527.91,518.165,527.91,512.029,531.695,508.244z"/>
	</g>
	<g>
		<path fill="#E6E7E8" d="M56.872,567.74c3.785-3.784,9.921-3.784,13.705,0l19.83,19.83c3.785,3.784,3.785,9.921,0,13.705
			c-3.785,3.785-9.92,3.785-13.705,0l-19.83-19.83C53.087,577.661,53.087,571.525,56.872,567.74z"/>
		<path fill="#E6E7E8" d="M56.872,587.57l19.83-19.83c3.785-3.784,9.92-3.784,13.705,0c3.785,3.785,3.785,9.921,0,13.705
			l-19.83,19.83c-3.784,3.785-9.92,3.785-13.705,0C53.087,597.491,53.087,591.354,56.872,587.57z"/>
	</g>
</g>
</svg>
