<?xml version="1.0" encoding="utf-8"?>
<!-- Generator: Adobe Illustrator 16.0.0, SVG Export Plug-In . SVG Version: 6.00 Build 0)  -->
<!DOCTYPE svg PUBLIC "-//W3C//DTD SVG 1.1//EN" "http://www.w3.org/Graphics/SVG/1.1/DTD/svg11.dtd">
<svg version="1.1" id="katman_1" xmlns="http://www.w3.org/2000/svg" xmlns:xlink="http://www.w3.org/1999/xlink" x="0px" y="0px"
	 width="405px" height="242.652px" viewBox="0 0 405 242.652" enable-background="new 0 0 405 242.652" xml:space="preserve">
<g>
	<g id="XMLID_23_">
		<g>
			<g>
				<g>
					<g>
						<path fill="#D7DB2D" d="M337.35,12.349c1.598-1.056,3.406-1.825,5.367-2.206h-0.025l0.888-3.828h4.031l0.888,3.828h-0.024
							c1.951,0.38,3.769,1.141,5.356,2.206l3.33-2.07l2.85,2.848l-2.07,3.322c1.064,1.588,1.833,3.405,2.222,5.349l3.812,0.878
							v4.041l-3.812,0.88c-0.381,1.951-1.147,3.76-2.213,5.356l2.07,3.313l-2.85,2.856l-3.32-2.07
							c-1.588,1.065-3.406,1.833-5.359,2.223l-0.878,3.804h-4.031l-0.88-3.804c-1.951-0.391-3.768-1.157-5.356-2.223l-3.33,2.07
							l-2.849-2.848l2.079-3.33c-1.064-1.589-1.826-3.407-2.215-5.351l-3.818-0.879v-4.041l3.818-0.878
							c0.389-1.943,1.159-3.752,2.225-5.341l-2.08-3.33l2.848-2.856L337.35,12.349z M351.1,24.706c0-3.043-2.467-5.503-5.509-5.503
							s-5.503,2.459-5.503,5.503c0,3.041,2.461,5.509,5.503,5.509S351.1,27.747,351.1,24.706z"/>
					</g>
				</g>
			</g>
		</g>
		<g>
			<g>
				<g>
					<g>
						<path fill="#312E2E" d="M337.342,13.264c-0.5,0-0.906-0.406-0.906-0.905c0-0.216,0.076-0.415,0.203-0.571
							c0.166-0.209,0.422-0.345,0.711-0.345c0.5,0,0.906,0.405,0.906,0.906C338.256,12.849,337.842,13.264,337.342,13.264z"/>
					</g>
				</g>
			</g>
			<g>
				<g>
					<g>
						<path fill="#312E2E" d="M347.611,43.984h-4.031c-0.421,0-0.785-0.291-0.882-0.702l-0.75-3.246
							c-1.638-0.389-3.186-1.031-4.612-1.913l-2.845,1.769c-0.356,0.22-0.819,0.169-1.119-0.128l-2.849-2.849
							c-0.297-0.299-0.351-0.763-0.127-1.12l1.776-2.844c-0.876-1.419-1.517-2.963-1.904-4.603l-3.262-0.75
							c-0.41-0.096-0.703-0.46-0.703-0.883v-4.041c0-0.421,0.293-0.787,0.703-0.882l3.262-0.75c0.388-1.625,1.029-3.167,1.912-4.595
							l-1.775-2.844c-0.223-0.356-0.17-0.82,0.127-1.119l2.848-2.856c0.299-0.298,0.763-0.354,1.122-0.129l2.846,1.777
							c1.438-0.879,2.979-1.514,4.592-1.895l0.76-3.273c0.097-0.41,0.461-0.702,0.882-0.702h4.031c0.423,0,0.788,0.292,0.883,0.702
							l0.759,3.273c1.632,0.385,3.17,1.02,4.588,1.895l2.845-1.77c0.355-0.221,0.818-0.169,1.117,0.13l2.848,2.848
							c0.299,0.297,0.353,0.762,0.129,1.119l-1.768,2.835c0.881,1.427,1.521,2.971,1.912,4.604l3.254,0.75
							c0.41,0.095,0.701,0.46,0.701,0.882v4.041c0,0.422-0.291,0.787-0.701,0.883l-3.251,0.75c-0.382,1.625-1.021,3.172-1.906,4.609
							l1.767,2.829c0.224,0.357,0.172,0.82-0.127,1.119l-2.848,2.856c-0.299,0.298-0.765,0.351-1.12,0.128l-2.835-1.767
							c-1.428,0.881-2.975,1.523-4.613,1.913l-0.749,3.245C348.399,43.692,348.033,43.984,347.611,43.984z M344.3,42.173h2.591
							l0.717-3.101c0.08-0.347,0.356-0.616,0.705-0.687c1.812-0.359,3.504-1.062,5.031-2.085c0.297-0.197,0.681-0.204,0.981-0.017
							l2.709,1.688l1.832-1.837l-1.688-2.703c-0.188-0.303-0.184-0.687,0.015-0.981c1.029-1.544,1.729-3.236,2.078-5.03
							c0.068-0.35,0.337-0.627,0.687-0.708l3.108-0.717v-2.601l-3.108-0.715c-0.348-0.08-0.614-0.356-0.685-0.705
							c-0.362-1.808-1.063-3.497-2.088-5.024c-0.197-0.295-0.205-0.681-0.016-0.982l1.688-2.712l-1.831-1.831l-2.72,1.69
							c-0.301,0.187-0.687,0.181-0.981-0.017c-1.521-1.021-3.214-1.717-5.026-2.069c-0.432-0.084-0.734-0.462-0.733-0.892
							l-0.676-2.92h-2.592l-0.691,2.977c-0.02,0.407-0.307,0.756-0.719,0.836c-1.787,0.347-3.484,1.043-5.039,2.072
							c-0.295,0.195-0.679,0.199-0.979,0.013l-2.719-1.698l-1.832,1.837l1.699,2.722c0.188,0.303,0.184,0.688-0.016,0.982
							c-1.027,1.533-1.729,3.221-2.087,5.016c-0.069,0.35-0.34,0.626-0.688,0.706l-3.115,0.717v2.598l3.117,0.719
							c0.346,0.08,0.615,0.355,0.686,0.705c0.361,1.815,1.062,3.505,2.077,5.022c0.198,0.295,0.204,0.681,0.017,0.982l-1.698,2.72
							l1.831,1.831l2.722-1.69c0.302-0.187,0.686-0.181,0.98,0.017c1.526,1.023,3.221,1.727,5.03,2.085
							c0.35,0.07,0.625,0.338,0.705,0.685L344.3,42.173z"/>
					</g>
				</g>
			</g>
			<g>
				<g>
					<g>
						<path fill="#312E2E" d="M345.591,31.121c-3.534,0-6.407-2.877-6.407-6.415c0-3.534,2.873-6.409,6.407-6.409
							c3.536,0,6.415,2.875,6.415,6.409C352.006,28.243,349.127,31.121,345.591,31.121z M345.591,20.108
							c-2.534,0-4.598,2.062-4.598,4.598c0,2.539,2.062,4.604,4.598,4.604c2.538,0,4.604-2.065,4.604-4.604
							C350.195,22.17,348.129,20.108,345.591,20.108z"/>
					</g>
				</g>
			</g>
			<g>
				<g>
					<g>
						<path fill="#312E2E" d="M335.069,25.611c-0.499,0-0.905-0.406-0.905-0.905c0-3.058,1.19-5.927,3.354-8.08
							c2.147-2.158,5.018-3.348,8.075-3.348c0.499,0,0.904,0.405,0.904,0.906c0,0.5-0.405,0.904-0.904,0.904
							c-2.573,0-4.986,1-6.796,2.817c-1.82,1.812-2.82,4.227-2.82,6.8C335.975,25.206,335.57,25.611,335.069,25.611z"/>
					</g>
				</g>
			</g>
		</g>
	</g>
	<g>
		<g>
			<g>
				<rect x="0.906" y="139.496" fill="#FFFFFF" width="16.933" height="16.932"/>
			</g>
		</g>
		<g>
			<g>
				<path fill="#312E2E" d="M17.837,157.334H0.906c-0.5,0-0.905-0.406-0.905-0.906v-16.932c0-0.5,0.405-0.906,0.905-0.906h16.933
					c0.5,0,0.906,0.406,0.906,0.906v16.932C18.743,156.927,18.337,157.334,17.837,157.334z M1.811,155.521h15.121v-15.119H1.811
					V155.521z"/>
			</g>
		</g>
	</g>
	<g>
		<g>
			<g>
				<line fill="none" x1="0.906" y1="139.496" x2="17.837" y2="156.427"/>
			</g>
		</g>
		<g>
			<g>
				<path fill="#312E2E" d="M17.837,157.334c-0.231,0-0.463-0.089-0.641-0.266L0.266,140.135c-0.354-0.353-0.354-0.927,0-1.279
					c0.354-0.354,0.927-0.354,1.28,0l16.932,16.932c0.354,0.354,0.354,0.928,0,1.281C18.301,157.245,18.069,157.334,17.837,157.334z
					"/>
			</g>
		</g>
	</g>
	<g>
		<g>
			<g>
				<line fill="none" x1="0.906" y1="156.427" x2="17.837" y2="139.496"/>
			</g>
		</g>
		<g>
			<g>
				<path fill="#312E2E" d="M0.906,157.334c-0.231,0-0.464-0.089-0.64-0.266c-0.354-0.354-0.354-0.928,0-1.281l16.933-16.932
					c0.354-0.354,0.927-0.354,1.279,0c0.354,0.354,0.354,0.928,0,1.279L1.546,157.068C1.369,157.245,1.138,157.334,0.906,157.334z"
					/>
			</g>
		</g>
	</g>
	<g opacity="0.5">
		<g>
			<g>
				<path fill="#FFFFFF" d="M376.184,227.207H167.883c-4.723,0-8.55-3.826-8.55-8.549c0-4.722,3.827-8.551,8.55-8.551h208.301
					c1.941,0,3.521-1.579,3.521-3.521v-80.469c0-4.723,3.829-8.55,8.551-8.55c4.723,0,8.551,3.827,8.551,8.55v80.469
					C396.805,217.959,387.555,227.207,376.184,227.207z"/>
			</g>
		</g>
	</g>
	<g opacity="0.5">
		<g>
			<g>
				<circle fill="#FFFFFF" cx="70.832" cy="40.032" r="38.032"/>
			</g>
		</g>
	</g>
	<g opacity="0.5">
		<g>
			<g>
				<circle fill="#FFFFFF" cx="245.378" cy="153.908" r="27.53"/>
			</g>
		</g>
	</g>
	<g opacity="0.05">
		<g>
			<g>
				<path fill="#FFFFFF" d="M103.787,229.639c-15.521,0-30.091-6.974-39.974-19.134c-2.277-2.803-1.852-6.92,0.95-9.196
					c2.803-2.277,6.919-1.854,9.197,0.948c7.389,9.093,18.26,14.306,29.826,14.306c21.237,0,38.517-17.372,38.517-38.727V83.284
					c0-3.611,2.927-6.538,6.538-6.538s6.538,2.927,6.538,6.538v94.553C155.38,206.4,132.236,229.639,103.787,229.639z"/>
			</g>
		</g>
	</g>
	<g>
		<g>
			<g>
				<g>
					<rect x="31.574" y="17.749" fill="#EB5B28" width="38.978" height="57.082"/>
				</g>
			</g>
			<g>
				<g>
					<path fill="#312E2E" d="M70.551,75.836H31.574c-0.557,0-1.007-0.45-1.007-1.006V17.749c0-0.555,0.45-1.006,1.007-1.006h38.978
						c0.556,0,1.006,0.451,1.006,1.006V74.83C71.557,75.385,71.107,75.836,70.551,75.836z M32.58,73.824h36.966v-55.07H32.58V73.824
						z"/>
				</g>
			</g>
		</g>
		<g>
			<g>
				<g>
					<polygon fill="#F5F5F5" points="58.732,29.064 58.732,86.146 87.315,86.146 87.315,75.752 97.709,75.752 97.709,29.064 					
						"/>
				</g>
			</g>
			<g>
				<g>
					<path fill="#312E2E" d="M87.315,87.152H58.732c-0.556,0-1.006-0.45-1.006-1.005V29.064c0-0.556,0.45-1.005,1.006-1.005h38.978
						c0.556,0,1.006,0.449,1.006,1.005v46.688c0,0.557-0.45,1.005-1.006,1.005h-9.39v9.39
						C88.321,86.702,87.871,87.152,87.315,87.152z M59.738,85.141H86.31v-9.39c0-0.557,0.45-1.006,1.005-1.006h9.39V30.07H59.738
						V85.141z"/>
				</g>
			</g>
		</g>
		<g>
			<g>
				<g>
					<polygon fill="#F5F5F5" points="97.709,75.752 87.315,86.146 87.315,75.752 					"/>
				</g>
			</g>
			<g>
				<g>
					<path fill="#312E2E" d="M87.315,87.152c-0.129,0-0.26-0.025-0.385-0.077c-0.375-0.155-0.621-0.522-0.621-0.929V75.752
						c0-0.557,0.45-1.006,1.005-1.006h10.396c0.407,0,0.773,0.245,0.93,0.621c0.155,0.376,0.07,0.809-0.218,1.097L88.026,86.858
						C87.834,87.05,87.577,87.152,87.315,87.152z M88.321,76.757v6.96l6.962-6.96H88.321z"/>
				</g>
			</g>
		</g>
		<g>
			<g>
				<g>
					<line fill="none" x1="46.524" y1="47.505" x2="70.832" y2="47.505"/>
				</g>
			</g>
			<g>
				<g>
					<path fill="#312E2E" d="M70.832,48.51H46.524c-0.556,0-1.006-0.449-1.006-1.005c0-0.557,0.45-1.006,1.006-1.006h24.309
						c0.556,0,1.006,0.45,1.006,1.006S71.388,48.51,70.832,48.51z"/>
				</g>
			</g>
		</g>
		<g>
			<g>
				<g>
					<path fill="#312E2E" d="M63.657,52.654c-0.349,0-0.687-0.181-0.873-0.503c-0.278-0.481-0.113-1.096,0.368-1.374l5.668-3.272
						l-5.668-3.275c-0.48-0.276-0.646-0.893-0.367-1.373c0.276-0.482,0.894-0.647,1.373-0.367l7.177,4.146
						c0.312,0.179,0.503,0.512,0.503,0.871s-0.192,0.69-0.503,0.871l-7.177,4.144C63.999,52.611,63.827,52.654,63.657,52.654z"/>
				</g>
			</g>
		</g>
		<g>
			<g>
				<g>
					<line fill="none" x1="70.832" y1="59.407" x2="46.524" y2="59.407"/>
				</g>
			</g>
			<g>
				<g>
					<path fill="#312E2E" d="M70.832,60.412H46.524c-0.556,0-1.006-0.45-1.006-1.005c0-0.557,0.45-1.007,1.006-1.007h24.309
						c0.556,0,1.006,0.45,1.006,1.007C71.838,59.962,71.388,60.412,70.832,60.412z"/>
				</g>
			</g>
		</g>
		<g>
			<g>
				<g>
					<path fill="#312E2E" d="M53.7,64.556c-0.171,0-0.344-0.043-0.502-0.135l-7.178-4.144c-0.312-0.18-0.503-0.512-0.503-0.871
						c0-0.36,0.191-0.692,0.503-0.872l7.178-4.144c0.48-0.279,1.096-0.113,1.375,0.367c0.277,0.481,0.111,1.098-0.369,1.375
						l-5.668,3.272l5.668,3.271c0.48,0.278,0.646,0.894,0.369,1.374C54.386,64.375,54.048,64.556,53.7,64.556z"/>
				</g>
			</g>
		</g>
	</g>
	<g>
		<g>
			<g>
				<g>
					<path fill="#312E2E" d="M68.887,207.388c-0.292,0-0.582-0.127-0.78-0.371c-0.432-0.532-0.853-1.071-1.261-1.624
						c-0.332-0.445-0.238-1.075,0.208-1.406c0.445-0.332,1.076-0.237,1.406,0.208c0.391,0.526,0.794,1.046,1.207,1.553
						c0.352,0.433,0.285,1.065-0.146,1.416C69.335,207.314,69.111,207.388,68.887,207.388z"/>
				</g>
			</g>
		</g>
		<g>
			<g>
				<g>
					<path fill="#312E2E" d="M65.428,202.51c-0.338,0-0.668-0.17-0.857-0.479c-0.707-1.149-1.37-2.344-1.974-3.551
						c-0.25-0.496-0.048-1.101,0.449-1.351c0.496-0.25,1.101-0.047,1.349,0.451c0.577,1.152,1.214,2.295,1.891,3.396
						c0.291,0.473,0.144,1.094-0.33,1.385C65.789,202.462,65.608,202.51,65.428,202.51z M61.875,195.41
						c-0.401,0-0.78-0.242-0.937-0.637c-0.495-1.256-0.939-2.547-1.322-3.841c-0.157-0.532,0.146-1.094,0.68-1.251
						c0.532-0.154,1.091,0.146,1.249,0.681c0.366,1.236,0.792,2.472,1.266,3.671c0.204,0.518-0.049,1.103-0.565,1.307
						C62.124,195.388,61.999,195.41,61.875,195.41z M59.623,187.797c-0.47,0-0.889-0.328-0.984-0.807
						c-0.268-1.322-0.478-2.672-0.627-4.014c-0.061-0.552,0.336-1.05,0.888-1.109c0.551-0.066,1.05,0.335,1.111,0.888
						c0.143,1.282,0.345,2.573,0.601,3.837c0.108,0.545-0.243,1.075-0.787,1.187C59.756,187.79,59.689,187.797,59.623,187.797z
						 M58.744,179.908c-0.544,0-0.992-0.434-1.006-0.982c-0.009-0.36-0.013-0.725-0.013-1.089v-2.909
						c0-0.556,0.45-1.006,1.006-1.006c0.557,0,1.006,0.45,1.006,1.006v2.909c0,0.35,0.005,0.696,0.013,1.042
						c0.014,0.557-0.426,1.018-0.982,1.029C58.76,179.908,58.752,179.908,58.744,179.908z M58.732,171.958
						c-0.556,0-1.006-0.45-1.006-1.007v-3.974c0-0.557,0.45-1.006,1.006-1.006c0.557,0,1.006,0.449,1.006,1.006v3.974
						C59.738,171.508,59.289,171.958,58.732,171.958z M58.732,164.007c-0.556,0-1.006-0.449-1.006-1.006v-3.974
						c0-0.558,0.45-1.007,1.006-1.007c0.557,0,1.006,0.449,1.006,1.007v3.974C59.738,163.557,59.289,164.007,58.732,164.007z
						 M58.732,156.057c-0.556,0-1.006-0.45-1.006-1.007v-3.975c0-0.557,0.45-1.006,1.006-1.006c0.557,0,1.006,0.449,1.006,1.006
						v3.975C59.738,155.606,59.289,156.057,58.732,156.057z M58.732,148.106c-0.556,0-1.006-0.45-1.006-1.006v-3.977
						c0-0.556,0.45-1.006,1.006-1.006c0.557,0,1.006,0.45,1.006,1.006v3.977C59.738,147.656,59.289,148.106,58.732,148.106z
						 M58.732,140.156c-0.556,0-1.006-0.451-1.006-1.006v-3.978c0-0.555,0.45-1.005,1.006-1.005c0.557,0,1.006,0.45,1.006,1.005
						v3.978C59.738,139.705,59.289,140.156,58.732,140.156z M58.732,132.205c-0.556,0-1.006-0.451-1.006-1.006v-3.975
						c0-0.558,0.45-1.007,1.006-1.007c0.557,0,1.006,0.449,1.006,1.007v3.975C59.738,131.754,59.289,132.205,58.732,132.205z
						 M58.732,124.254c-0.556,0-1.006-0.451-1.006-1.006v-3.975c0-0.556,0.45-1.006,1.006-1.006c0.557,0,1.006,0.45,1.006,1.006
						v3.975C59.738,123.802,59.289,124.254,58.732,124.254z M58.732,116.305c-0.556,0-1.006-0.451-1.006-1.006v-3.977
						c0-0.555,0.45-1.006,1.006-1.006c0.557,0,1.006,0.451,1.006,1.006v3.977C59.738,115.854,59.289,116.305,58.732,116.305z
						 M58.732,108.354c-0.556,0-1.006-0.451-1.006-1.006v-3.978c0-0.554,0.45-1.006,1.006-1.006c0.557,0,1.006,0.452,1.006,1.006
						v3.978C59.738,107.903,59.289,108.354,58.732,108.354z"/>
				</g>
			</g>
		</g>
		<g>
			<g>
				<g>
					<path fill="#312E2E" d="M58.732,100.385c-0.556,0-1.006-0.45-1.006-1.006v-2.011c0-0.556,0.45-1.006,1.006-1.006
						c0.557,0,1.006,0.45,1.006,1.006v2.011C59.738,99.935,59.289,100.385,58.732,100.385z"/>
				</g>
			</g>
		</g>
	</g>
	<g>
		<g>
			<g>
				<path fill="#312E2E" d="M103.787,224.107c-13.848,0-26.854-6.229-35.681-17.091c-0.352-0.432-0.285-1.064,0.146-1.415
					c0.431-0.353,1.063-0.285,1.415,0.146c8.444,10.392,20.88,16.348,34.12,16.348c24.289,0,44.049-19.854,44.049-44.258V83.284
					c0-0.555,0.45-1.006,1.006-1.006s1.006,0.451,1.006,1.006v94.553C149.848,203.35,129.186,224.107,103.787,224.107z"/>
			</g>
		</g>
	</g>
	<g id="XMLID_22_">
		<g>
			<g>
				<g>
					<path fill="#F5F5F5" d="M186.06,126.402v41.896h-72.582v-41.896H186.06z M134.204,151.141v-18.789h-14.48v18.789H134.204z"/>
				</g>
			</g>
			<g>
				<g>
					<path fill="#F9B03D" d="M186.06,118.668v7.734h-72.582v-7.734H186.06z M181.419,122.69c0-0.821-0.667-1.477-1.477-1.477
						c-0.82,0-1.486,0.654-1.486,1.477s0.666,1.486,1.486,1.486C180.752,124.177,181.419,123.512,181.419,122.69z M177.373,122.69
						c0-0.821-0.654-1.477-1.477-1.477c-0.821,0-1.475,0.654-1.475,1.477s0.654,1.486,1.475,1.486
						C176.718,124.177,177.373,123.512,177.373,122.69z M173.185,122.69c0-0.821-0.667-1.477-1.476-1.477
						c-0.82,0-1.487,0.654-1.487,1.477s0.667,1.486,1.487,1.486C172.518,124.177,173.185,123.512,173.185,122.69z"/>
				</g>
			</g>
			<g>
				<g>
					<path fill="#312E2E" d="M179.943,121.215c0.81,0,1.477,0.654,1.477,1.477s-0.667,1.486-1.477,1.486
						c-0.82,0-1.486-0.666-1.486-1.486C178.456,121.87,179.123,121.215,179.943,121.215z"/>
				</g>
			</g>
			<g>
				<g>
					<path fill="#312E2E" d="M175.897,121.215c0.821,0,1.477,0.654,1.477,1.477s-0.654,1.486-1.477,1.486
						c-0.821,0-1.475-0.666-1.475-1.486C174.422,121.87,175.076,121.215,175.897,121.215z"/>
				</g>
			</g>
			<g>
				<g>
					<path fill="#312E2E" d="M171.709,121.215c0.809,0,1.476,0.654,1.476,1.477s-0.667,1.486-1.476,1.486
						c-0.82,0-1.487-0.666-1.487-1.486C170.222,121.87,170.889,121.215,171.709,121.215z"/>
				</g>
			</g>
			<g>
				<g>
					<rect x="119.724" y="132.352" fill="#52BDBD" width="14.48" height="18.789"/>
				</g>
			</g>
		</g>
		<g>
			<g>
				<g>
					<path fill="#312E2E" d="M186.06,169.203h-72.582c-0.5,0-0.906-0.404-0.906-0.905v-49.63c0-0.499,0.405-0.904,0.906-0.904
						h72.582c0.499,0,0.905,0.405,0.905,0.904v49.63C186.964,168.799,186.559,169.203,186.06,169.203z M114.382,167.393h70.771
						v-47.818h-70.771V167.393z"/>
				</g>
			</g>
			<g>
				<g>
					<path fill="#312E2E" d="M186.06,127.309h-72.582c-0.5,0-0.906-0.406-0.906-0.906s0.405-0.905,0.906-0.905h72.582
						c0.499,0,0.905,0.405,0.905,0.905S186.559,127.309,186.06,127.309z"/>
				</g>
			</g>
			<g>
				<g>
					<path fill="#312E2E" d="M134.204,152.146h-14.48c-0.555,0-1.006-0.451-1.006-1.006v-18.789c0-0.556,0.451-1.005,1.006-1.005
						h14.48c0.556,0,1.006,0.449,1.006,1.005v18.789C135.21,151.695,134.76,152.146,134.204,152.146z M120.73,150.135h12.468V133.36
						H120.73V150.135z"/>
				</g>
			</g>
			<g>
				<g>
					<path fill="#312E2E" d="M181.002,133.257h-40.064c-0.499,0-0.904-0.403-0.904-0.904c0-0.499,0.405-0.904,0.904-0.904h40.064
						c0.499,0,0.905,0.405,0.905,0.904C181.907,132.853,181.501,133.257,181.002,133.257z"/>
				</g>
			</g>
			<g>
				<g>
					<path fill="#312E2E" d="M181.002,137.613h-40.064c-0.499,0-0.904-0.406-0.904-0.906s0.405-0.906,0.904-0.906h40.064
						c0.499,0,0.905,0.406,0.905,0.906S181.501,137.613,181.002,137.613z"/>
				</g>
			</g>
			<g>
				<g>
					<path fill="#312E2E" d="M181.002,142.371h-40.064c-0.499,0-0.904-0.405-0.904-0.904c0-0.501,0.405-0.904,0.904-0.904h40.064
						c0.499,0,0.905,0.403,0.905,0.904C181.907,141.966,181.501,142.371,181.002,142.371z"/>
				</g>
			</g>
			<g>
				<g>
					<path fill="#312E2E" d="M181.002,147.131h-40.064c-0.499,0-0.904-0.403-0.904-0.905c0-0.498,0.405-0.903,0.904-0.903h40.064
						c0.499,0,0.905,0.405,0.905,0.903C181.907,146.727,181.501,147.131,181.002,147.131z"/>
				</g>
			</g>
			<g>
				<g>
					<path fill="#312E2E" d="M181.002,151.892h-40.064c-0.499,0-0.904-0.405-0.904-0.906c0-0.499,0.405-0.905,0.904-0.905h40.064
						c0.499,0,0.905,0.406,0.905,0.905C181.907,151.486,181.501,151.892,181.002,151.892z"/>
				</g>
			</g>
			<g>
				<g>
					<path fill="#312E2E" d="M181.002,156.649h-61.278c-0.5,0-0.905-0.405-0.905-0.905s0.404-0.904,0.905-0.904h61.278
						c0.499,0,0.905,0.404,0.905,0.904S181.501,156.649,181.002,156.649z"/>
				</g>
			</g>
			<g>
				<g>
					<path fill="#312E2E" d="M181.002,161.41h-61.278c-0.5,0-0.905-0.405-0.905-0.906c0-0.499,0.404-0.903,0.905-0.903h61.278
						c0.499,0,0.905,0.404,0.905,0.903C181.907,161.005,181.501,161.41,181.002,161.41z"/>
				</g>
			</g>
		</g>
	</g>
	<g>
		<g>
			<g>
				<g>
					<circle fill="#F2F2F2" cx="58.678" cy="140.429" r="19.878"/>
				</g>
			</g>
			<g>
				<g>
					<path fill="#312E2E" d="M58.678,161.211c-11.46,0-20.782-9.321-20.782-20.781c0-11.461,9.322-20.782,20.782-20.782
						c11.461,0,20.783,9.321,20.783,20.782C79.461,151.889,70.139,161.211,58.678,161.211z M58.678,121.456
						c-10.461,0-18.973,8.511-18.973,18.974c0,10.462,8.511,18.974,18.973,18.974s18.973-8.512,18.973-18.974
						C77.651,129.967,69.14,121.456,58.678,121.456z"/>
				</g>
			</g>
		</g>
		<g>
			<g>
				<g>
					<g>
						
							<path fill="#F39323" stroke="#312E2E" stroke-width="2" stroke-linecap="round" stroke-linejoin="round" stroke-miterlimit="10" d="
							M53.017,153.02"/>
					</g>
				</g>
			</g>
			<g>
				<g>
					<g>
						<polygon fill="#F39323" points="48.258,143.74 53.017,153.02 57.655,143.74 55.344,143.74 55.344,127.838 50.566,127.838 
							50.566,143.74 						"/>
					</g>
				</g>
				<g>
					<g>
						<path fill="#312E2E" d="M53.017,154.025c-0.377,0-0.723-0.211-0.895-0.547l-4.759-9.279c-0.159-0.312-0.146-0.685,0.036-0.983
							c0.183-0.298,0.509-0.48,0.858-0.48h1.303v-14.896c0-0.555,0.451-1.006,1.006-1.006h4.778c0.555,0,1.006,0.451,1.006,1.006
							v14.896h1.305c0.35,0,0.674,0.182,0.855,0.478c0.183,0.296,0.201,0.665,0.044,0.979l-4.639,9.279
							c-0.169,0.339-0.516,0.554-0.896,0.556C53.02,154.025,53.018,154.025,53.017,154.025z M49.905,144.746l3.102,6.047
							l3.021-6.047h-0.683c-0.555,0-1.005-0.449-1.005-1.006v-14.896h-2.767v14.896c0,0.557-0.451,1.006-1.007,1.006H49.905z"/>
					</g>
				</g>
			</g>
		</g>
		<g>
			<g>
				<g>
					<g>
						
							<path fill="none" stroke="#312E2E" stroke-width="1.8" stroke-linecap="round" stroke-linejoin="round" stroke-miterlimit="10" d="
							M64.816,127.836"/>
					</g>
				</g>
			</g>
			<g>
				<g>
					<g>
						<path fill="#312E2E" d="M67.263,153.925h-4.777c-0.5,0-0.904-0.404-0.904-0.904v-15h-1.404c-0.313,0-0.605-0.164-0.77-0.432
							c-0.165-0.267-0.181-0.599-0.041-0.88l4.639-9.276c0.153-0.307,0.465-0.499,0.806-0.5c0.002,0,0.004,0,0.005,0
							c0.339,0,0.65,0.188,0.806,0.489l4.758,9.279c0.145,0.279,0.132,0.615-0.032,0.884c-0.165,0.271-0.458,0.436-0.772,0.436
							h-1.406v15C68.168,153.52,67.764,153.925,67.263,153.925z M63.391,152.113h2.968v-15c0-0.5,0.405-0.905,0.904-0.905h0.829
							l-3.265-6.368l-3.186,6.368h0.844c0.5,0,0.905,0.405,0.905,0.905V152.113z"/>
					</g>
				</g>
			</g>
		</g>
	</g>
	<g>
		<g>
			<g>
				<path fill="#312E2E" d="M44.307,104.199c-1.329,0-2.031-0.815-2.496-1.354c-0.428-0.495-0.597-0.656-0.971-0.656
					s-0.543,0.161-0.972,0.656c-0.465,0.54-1.167,1.354-2.495,1.354c-1.326,0-2.028-0.815-2.493-1.355
					c-0.426-0.494-0.595-0.655-0.968-0.655c-0.372,0-0.541,0.161-0.968,0.655c-0.466,0.541-1.167,1.355-2.492,1.355
					c-1.327,0-2.03-0.815-2.493-1.355c-0.426-0.494-0.596-0.655-0.966-0.655c-0.372,0-0.541,0.161-0.966,0.655
					c-0.464,0.541-1.166,1.355-2.491,1.355c-1.327,0-2.028-0.815-2.493-1.355c-0.426-0.494-0.595-0.655-0.967-0.655
					s-0.541,0.161-0.968,0.655c-0.464,0.541-1.166,1.355-2.492,1.355s-2.028-0.815-2.491-1.355
					c-0.426-0.494-0.596-0.655-0.967-0.655c-0.557,0-1.007-0.451-1.007-1.006c0-0.556,0.45-1.007,1.007-1.007
					c1.325,0,2.026,0.817,2.49,1.357c0.427,0.496,0.596,0.655,0.968,0.655c0.371,0,0.541-0.159,0.967-0.655
					c0.465-0.541,1.166-1.357,2.492-1.357s2.027,0.816,2.492,1.355c0.427,0.498,0.596,0.657,0.968,0.657
					c0.369,0,0.54-0.159,0.966-0.655c0.463-0.54,1.165-1.357,2.491-1.357c1.325,0,2.026,0.816,2.491,1.357
					c0.427,0.496,0.596,0.655,0.968,0.655c0.37,0,0.54-0.159,0.967-0.655c0.465-0.541,1.167-1.357,2.493-1.357
					c1.327,0,2.028,0.816,2.493,1.357c0.427,0.496,0.596,0.655,0.969,0.655c0.374,0,0.544-0.161,0.97-0.657
					c0.465-0.54,1.169-1.355,2.496-1.355s2.03,0.815,2.495,1.355c0.427,0.496,0.598,0.657,0.972,0.657
					c0.556,0,1.005,0.451,1.005,1.006C45.312,103.749,44.862,104.199,44.307,104.199z"/>
			</g>
		</g>
	</g>
	<g>
		<g>
			<g>
				<path fill="#312E2E" d="M335.377,122.515c-1.328,0-2.03-0.815-2.495-1.356c-0.429-0.496-0.598-0.656-0.973-0.656
					c-0.373,0-0.545,0.16-0.971,0.656c-0.465,0.541-1.168,1.356-2.495,1.356s-2.03-0.816-2.495-1.356
					c-0.425-0.497-0.594-0.656-0.967-0.656c-0.371,0-0.541,0.159-0.967,0.655c-0.465,0.54-1.166,1.356-2.492,1.356
					c-1.328,0-2.029-0.817-2.494-1.357c-0.426-0.495-0.594-0.654-0.965-0.654c-0.372,0-0.541,0.159-0.967,0.655
					c-0.465,0.539-1.166,1.356-2.492,1.356s-2.026-0.816-2.491-1.356c-0.427-0.497-0.596-0.656-0.968-0.656
					c-0.371,0-0.541,0.159-0.967,0.654c-0.463,0.54-1.167,1.357-2.493,1.357s-2.025-0.817-2.491-1.356
					c-0.426-0.496-0.595-0.655-0.967-0.655c-0.557,0-1.006-0.451-1.006-1.006c0-0.556,0.449-1.005,1.006-1.005
					c1.326,0,2.027,0.815,2.491,1.355c0.427,0.495,0.596,0.655,0.967,0.655c0.372,0,0.542-0.161,0.968-0.655
					c0.465-0.54,1.166-1.355,2.492-1.355s2.027,0.815,2.492,1.355c0.427,0.495,0.596,0.655,0.967,0.655s0.541-0.161,0.965-0.655
					c0.465-0.54,1.166-1.355,2.494-1.355c1.325,0,2.026,0.815,2.49,1.355c0.426,0.495,0.596,0.655,0.969,0.655
					c0.371,0,0.541-0.161,0.967-0.655c0.463-0.54,1.166-1.355,2.492-1.355s2.029,0.815,2.493,1.355
					c0.427,0.495,0.596,0.655,0.969,0.655s0.542-0.161,0.971-0.655c0.466-0.54,1.167-1.355,2.495-1.355s2.031,0.815,2.497,1.355
					c0.428,0.495,0.597,0.655,0.971,0.655c0.555,0,1.006,0.45,1.006,1.007C336.383,122.064,335.932,122.515,335.377,122.515z"/>
			</g>
		</g>
	</g>
	<g id="XMLID_21_">
		<g>
			<g>
				<g>
					<g>
						<polygon fill="#FFFFFF" points="195.168,33.474 195.168,87.449 160.49,71.479 160.49,49.432 						"/>
					</g>
				</g>
			</g>
			<g>
				<g>
					<g>
						<path fill="#6A7372" d="M161.191,80.76h-5.308l-2.383-9.282h5.108C156.995,77.421,161.191,80.76,161.191,80.76z"/>
					</g>
				</g>
			</g>
			<g>
				<g>
					<g>
						<polygon fill="#EB5B28" points="134.537,49.432 160.49,49.432 160.49,71.479 158.609,71.479 153.5,71.479 139.167,71.479 
							134.537,71.479 134.537,69.643 134.537,51.28 						"/>
					</g>
				</g>
				<g>
					<g>
						<path fill="#312E2E" d="M160.49,72.485h-25.953c-0.556,0-1.007-0.45-1.007-1.006V49.432c0-0.556,0.451-1.007,1.007-1.007
							h25.953c0.556,0,1.006,0.451,1.006,1.007v22.046C161.496,72.035,161.046,72.485,160.49,72.485z M135.543,70.473h23.94V50.438
							h-23.94V70.473z"/>
					</g>
				</g>
			</g>
			<g>
				<g>
					<g>
						<polygon fill="#F9B03D" points="159.133,93.115 159.989,96.798 159.043,93.115 						"/>
					</g>
				</g>
			</g>
			<g>
				<g>
					<g>
						<polygon fill="#F5F5F5" points="159.043,93.115 159.989,96.798 145.656,96.798 144.708,93.115 						"/>
					</g>
				</g>
			</g>
			<g>
				<g>
					<g>
						<polygon fill="#E6E6E6" points="155.883,80.76 159.043,93.115 144.708,93.115 142.416,84.145 139.167,71.479 153.5,71.479 
													"/>
					</g>
				</g>
			</g>
			<g>
				<g>
					<g>
						<polygon fill="#F5F5F5" points="144.708,93.115 145.656,96.798 142.194,96.798 142.194,93.115 						"/>
					</g>
				</g>
			</g>
			<g>
				<g>
					<g>
						<rect x="129.161" y="51.28" fill="#E6E6E6" width="5.376" height="18.363"/>
					</g>
				</g>
			</g>
		</g>
		<g>
			<g>
				<g>
					<g>
						<path fill="#312E2E" d="M134.537,52.285c-0.556,0-1.007-0.451-1.007-1.005v-1.848c0-0.556,0.451-1.007,1.007-1.007h25.953
							c0.556,0,1.006,0.451,1.006,1.007s-0.45,1.006-1.006,1.006h-24.947v0.842C135.543,51.834,135.092,52.285,134.537,52.285z"/>
					</g>
				</g>
			</g>
			<g>
				<g>
					<g>
						<path fill="#312E2E" d="M139.167,72.485h-4.629c-0.556,0-1.006-0.45-1.006-1.006v-1.836c0-0.556,0.45-1.005,1.006-1.005
							c0.555,0,1.006,0.449,1.006,1.005v0.83h3.624c0.556,0,1.006,0.45,1.006,1.006C140.172,72.035,139.723,72.485,139.167,72.485z"
							/>
					</g>
				</g>
			</g>
			<g>
				<g>
					<g>
						<path fill="#312E2E" d="M160.49,72.485h-6.99c-0.556,0-1.006-0.45-1.006-1.006s0.45-1.006,1.006-1.006h6.99
							c0.556,0,1.006,0.45,1.006,1.006S161.046,72.485,160.49,72.485z"/>
					</g>
				</g>
			</g>
			<g>
				<g>
					<g>
						<path fill="#312E2E" d="M195.167,88.455c-0.141,0-0.283-0.029-0.42-0.092l-34.678-15.97c-0.356-0.163-0.585-0.521-0.585-0.914
							V49.432c0-0.394,0.229-0.749,0.585-0.914l34.679-15.958c0.504-0.232,1.103-0.013,1.334,0.492
							c0.232,0.505,0.012,1.103-0.493,1.335l-34.092,15.688v20.758l34.093,15.701c0.504,0.233,0.725,0.83,0.492,1.334
							C195.912,88.239,195.548,88.455,195.167,88.455z"/>
					</g>
				</g>
			</g>
			<g>
				<g>
					<g>
						<path fill="#312E2E" d="M134.537,70.648h-5.376c-0.556,0-1.006-0.451-1.006-1.006V51.28c0-0.555,0.451-1.006,1.006-1.006
							h5.376c0.555,0,1.006,0.451,1.006,1.006v18.363C135.543,70.198,135.092,70.648,134.537,70.648z M130.167,68.637h3.363V52.285
							h-3.363V68.637z"/>
					</g>
				</g>
			</g>
			<g>
				<g>
					<g>
						<path fill="#312E2E" d="M200.554,91.616h-5.386c-0.556,0-1.005-0.45-1.005-1.006v-60.31c0-0.555,0.449-1.006,1.005-1.006
							h5.386c0.556,0,1.006,0.451,1.006,1.006v60.31C201.56,91.166,201.11,91.616,200.554,91.616z M196.174,89.604h3.374V31.307
							h-3.374V89.604z"/>
					</g>
				</g>
			</g>
			<g>
				<g>
					<g>
						<path fill="#312E2E" d="M159.042,94.121c-0.448,0-0.857-0.302-0.975-0.756l-5.349-20.879h-12.257l5.22,20.38
							c0.138,0.538-0.187,1.087-0.725,1.224c-0.542,0.139-1.086-0.188-1.225-0.726l-5.542-21.635
							c-0.077-0.302-0.011-0.621,0.18-0.866c0.19-0.246,0.483-0.39,0.795-0.39H153.5c0.459,0,0.859,0.312,0.974,0.756l5.543,21.636
							c0.138,0.538-0.188,1.087-0.725,1.224C159.209,94.11,159.125,94.121,159.042,94.121z"/>
					</g>
				</g>
			</g>
			<g>
				<g>
					<g>
						<path fill="#312E2E" d="M161.191,81.767h-5.308c-0.556,0-1.006-0.451-1.006-1.007s0.45-1.006,1.006-1.006h3.084
							c-1.177-1.711-2.397-4.607-1.329-8.54c0.146-0.534,0.696-0.851,1.234-0.707c0.536,0.146,0.853,0.699,0.707,1.234
							c-1.424,5.244,2.201,8.202,2.237,8.23c0.335,0.268,0.466,0.716,0.323,1.119C161.998,81.496,161.619,81.767,161.191,81.767z"/>
					</g>
				</g>
			</g>
			<g>
				<g>
					<g>
						<path fill="#312E2E" d="M160.009,97.804c-0.006-0.002-0.012,0-0.021,0h-17.795c-0.556,0-1.005-0.451-1.005-1.007v-3.684
							c0-0.556,0.45-1.005,1.005-1.005h16.851c0.468,0,0.962,0.322,1.067,0.776l0.812,3.495c0.059,0.126,0.091,0.269,0.091,0.417
							C161.015,97.354,160.565,97.804,160.009,97.804z M143.2,95.792h15.521l-0.389-1.672H143.2V95.792z"/>
					</g>
				</g>
			</g>
			<g>
				<g>
					<g>
						<path fill="#312E2E" d="M156.661,53.454H138.61c-0.556,0-1.006-0.45-1.006-1.006c0-0.554,0.45-1.005,1.006-1.005h18.052
							c0.556,0,1.006,0.451,1.006,1.005C157.667,53.004,157.217,53.454,156.661,53.454z"/>
					</g>
				</g>
			</g>
		</g>
	</g>
	<g>
		<g>
			<g>
				<path fill="#312E2E" d="M176.665,191.918h-2.264c-0.556,0-1.006-0.45-1.006-1.005c0-0.556,0.45-1.006,1.006-1.006h2.264
					c0.555,0,1.006,0.45,1.006,1.006C177.67,191.468,177.219,191.918,176.665,191.918z"/>
			</g>
		</g>
	</g>
	<g>
		<g>
			<g>
				<path fill="#312E2E" d="M187.604,191.918h-6.287c-0.556,0-1.005-0.45-1.005-1.005c0-0.556,0.45-1.006,1.005-1.006h6.287
					c0.556,0,1.006,0.45,1.006,1.006C188.609,191.468,188.159,191.918,187.604,191.918z"/>
			</g>
		</g>
	</g>
	<g>
		<g>
			<g>
				<path fill="#312E2E" d="M138.451,21.926h-2.264c-0.556,0-1.005-0.449-1.005-1.005c0-0.557,0.45-1.007,1.005-1.007h2.264
					c0.556,0,1.006,0.45,1.006,1.007C139.458,21.476,139.007,21.926,138.451,21.926z"/>
			</g>
		</g>
	</g>
	<g>
		<g>
			<g>
				<path fill="#312E2E" d="M131.536,21.926h-6.287c-0.557,0-1.006-0.449-1.006-1.005c0-0.557,0.449-1.007,1.006-1.007h6.287
					c0.556,0,1.006,0.45,1.006,1.007C132.542,21.476,132.092,21.926,131.536,21.926z"/>
			</g>
		</g>
	</g>
	<g>
		<g>
			<g>
				<path fill="#312E2E" d="M137.856,15.596h-2.263c-0.556,0-1.006-0.45-1.006-1.007c0-0.556,0.45-1.005,1.006-1.005h2.263
					c0.556,0,1.006,0.45,1.006,1.005C138.862,15.146,138.411,15.596,137.856,15.596z"/>
			</g>
		</g>
	</g>
	<g>
		<g>
			<g>
				<path fill="#312E2E" d="M148.795,15.596h-6.287c-0.556,0-1.006-0.45-1.006-1.007c0-0.556,0.45-1.005,1.006-1.005h6.287
					c0.555,0,1.005,0.45,1.005,1.005C149.801,15.146,149.35,15.596,148.795,15.596z"/>
			</g>
		</g>
	</g>
	<g>
		<g>
			<g>
				<g>
					<path fill="#312E2E" d="M88.175,183.932h-2.263c-0.556,0-1.007-0.451-1.007-1.007c0-0.557,0.451-1.006,1.007-1.006h2.263
						c0.555,0,1.006,0.449,1.006,1.006C89.181,183.48,88.729,183.932,88.175,183.932z"/>
				</g>
			</g>
		</g>
		<g>
			<g>
				<g>
					<path fill="#312E2E" d="M99.114,183.932h-6.286c-0.556,0-1.007-0.451-1.007-1.007c0-0.557,0.451-1.006,1.007-1.006h6.286
						c0.556,0,1.006,0.449,1.006,1.006C100.119,183.48,99.668,183.932,99.114,183.932z"/>
				</g>
			</g>
		</g>
	</g>
	<g>
		<g>
			<g>
				<g>
					<path fill="#312E2E" d="M53.317,235.506h-2.263c-0.555,0-1.006-0.45-1.006-1.006s0.451-1.006,1.006-1.006h2.263
						c0.556,0,1.007,0.45,1.007,1.006S53.872,235.506,53.317,235.506z"/>
				</g>
			</g>
		</g>
		<g>
			<g>
				<g>
					<path fill="#312E2E" d="M64.256,235.506h-6.287c-0.555,0-1.005-0.45-1.005-1.006s0.451-1.006,1.005-1.006h6.287
						c0.555,0,1.006,0.45,1.006,1.006S64.811,235.506,64.256,235.506z"/>
				</g>
			</g>
		</g>
	</g>
	<g>
		<g>
			<g>
				<path fill="#312E2E" d="M245.377,192.883c-1.223,0-2.457-0.058-3.672-0.17c-0.554-0.049-0.961-0.54-0.91-1.092
					c0.051-0.555,0.531-0.963,1.094-0.909c1.154,0.104,2.328,0.159,3.488,0.159l0.426-0.004c0.004,0,0.007,0,0.012,0
					c0.55,0,1,0.443,1.005,0.996c0.006,0.556-0.438,1.01-0.995,1.016L245.377,192.883z M251.817,192.348
					c-0.481,0-0.908-0.349-0.99-0.839c-0.094-0.549,0.277-1.066,0.824-1.159c1.287-0.216,2.572-0.5,3.823-0.847
					c0.535-0.148,1.091,0.164,1.237,0.699c0.148,0.535-0.165,1.09-0.699,1.237c-1.318,0.366-2.674,0.667-4.027,0.894
					C251.928,192.344,251.872,192.348,251.817,192.348z M235.858,191.701c-0.083,0-0.165-0.01-0.248-0.031
					c-1.33-0.336-2.655-0.746-3.941-1.22c-0.521-0.192-0.788-0.771-0.596-1.292c0.191-0.521,0.769-0.788,1.29-0.596
					c1.221,0.448,2.479,0.839,3.741,1.157c0.537,0.138,0.863,0.684,0.729,1.222C236.716,191.396,236.307,191.701,235.858,191.701z
					 M261.407,189.416c-0.382,0-0.746-0.218-0.915-0.588c-0.231-0.506-0.009-1.103,0.496-1.333c1.186-0.54,2.354-1.148,3.475-1.808
					c0.479-0.283,1.095-0.123,1.378,0.355c0.28,0.479,0.121,1.096-0.359,1.376c-1.178,0.695-2.41,1.336-3.656,1.904
					C261.688,189.386,261.547,189.416,261.407,189.416z M226.536,187.99c-0.166,0-0.334-0.04-0.489-0.127
					c-1.197-0.668-2.372-1.407-3.493-2.197c-0.453-0.319-0.562-0.947-0.242-1.401c0.318-0.453,0.945-0.563,1.401-0.242
					c1.062,0.749,2.179,1.45,3.313,2.085c0.485,0.271,0.659,0.884,0.389,1.37C227.231,187.806,226.889,187.99,226.536,187.99z
					 M269.913,184.109c-0.291,0-0.58-0.127-0.779-0.368c-0.352-0.431-0.29-1.063,0.141-1.417c1.005-0.824,1.979-1.713,2.895-2.639
					c0.392-0.396,1.026-0.398,1.422-0.009c0.396,0.393,0.398,1.028,0.009,1.425c-0.965,0.975-1.99,1.908-3.048,2.777
					C270.363,184.034,270.135,184.109,269.913,184.109z M218.489,182.008c-0.252,0-0.505-0.094-0.698-0.282
					c-0.986-0.953-1.934-1.968-2.813-3.018c-0.356-0.426-0.303-1.06,0.124-1.417c0.423-0.356,1.06-0.305,1.416,0.122
					c0.837,0.997,1.736,1.961,2.672,2.866c0.398,0.385,0.408,1.021,0.023,1.422C219.013,181.904,218.75,182.008,218.489,182.008z
					 M276.776,176.799c-0.204,0-0.407-0.062-0.587-0.19c-0.45-0.324-0.552-0.953-0.229-1.404c0.763-1.057,1.478-2.164,2.124-3.291
					c0.275-0.481,0.892-0.649,1.373-0.372c0.48,0.276,0.647,0.893,0.371,1.372c-0.683,1.188-1.434,2.355-2.235,3.468
					C277.397,176.652,277.088,176.799,276.776,176.799z M212.241,174.166c-0.342,0-0.675-0.174-0.861-0.485
					c-0.712-1.179-1.365-2.402-1.946-3.639c-0.234-0.503-0.021-1.102,0.483-1.337c0.5-0.236,1.102-0.021,1.338,0.482
					c0.551,1.173,1.172,2.335,1.846,3.452c0.287,0.476,0.135,1.094-0.34,1.381C212.597,174.119,212.417,174.166,212.241,174.166z
					 M281.54,167.969c-0.119,0-0.24-0.021-0.359-0.066c-0.518-0.197-0.778-0.777-0.58-1.297c0.463-1.219,0.867-2.474,1.199-3.729
					c0.144-0.536,0.688-0.856,1.229-0.714c0.537,0.143,0.857,0.694,0.716,1.231c-0.352,1.32-0.775,2.645-1.267,3.927
					C282.327,167.723,281.946,167.969,281.54,167.969z M208.217,164.98c-0.438,0-0.838-0.285-0.966-0.727
					c-0.381-1.317-0.698-2.671-0.939-4.018c-0.099-0.547,0.268-1.069,0.813-1.167c0.551-0.104,1.067,0.266,1.167,0.812
					c0.229,1.278,0.527,2.562,0.892,3.812c0.153,0.533-0.151,1.092-0.688,1.246C208.404,164.968,208.31,164.98,208.217,164.98z
					 M283.858,158.213c-0.035,0-0.069-0.002-0.104-0.006c-0.553-0.057-0.954-0.551-0.897-1.104c0.133-1.289,0.201-2.605,0.201-3.912
					c0-0.567-0.013-1.131-0.037-1.693c-0.024-0.555,0.404-1.024,0.959-1.05c0.542-0.017,1.025,0.405,1.051,0.96
					c0.025,0.592,0.039,1.186,0.039,1.783c0,1.375-0.071,2.762-0.213,4.119C284.803,157.828,284.368,158.213,283.858,158.213z
					 M206.704,155.068c-0.545,0-0.992-0.435-1.005-0.982c-0.008-0.297-0.012-0.596-0.012-0.895c0-1.074,0.045-2.16,0.131-3.229
					c0.043-0.554,0.519-0.974,1.083-0.921c0.555,0.043,0.967,0.527,0.921,1.082c-0.081,1.015-0.122,2.047-0.122,3.066
					c0,0.285,0.004,0.567,0.01,0.85c0.012,0.555-0.429,1.017-0.982,1.027C206.719,155.068,206.711,155.068,206.704,155.068z
					 M283.292,146.477c-0.47,0-0.89-0.329-0.984-0.806c-0.26-1.278-0.59-2.555-0.979-3.792c-0.166-0.529,0.128-1.095,0.657-1.261
					c0.53-0.166,1.095,0.127,1.262,0.657c0.411,1.306,0.756,2.646,1.027,3.994c0.112,0.544-0.238,1.074-0.785,1.187
					C283.424,146.471,283.358,146.477,283.292,146.477z M207.772,145.099c-0.078,0-0.158-0.01-0.237-0.028
					c-0.539-0.129-0.872-0.674-0.741-1.213c0.32-1.335,0.718-2.666,1.176-3.956c0.187-0.524,0.761-0.796,1.285-0.611
					c0.522,0.188,0.798,0.762,0.609,1.285c-0.436,1.224-0.811,2.487-1.114,3.754C208.637,144.789,208.225,145.099,207.772,145.099z
					 M280.036,136.993c-0.369,0-0.727-0.204-0.9-0.558c-0.581-1.166-1.229-2.313-1.924-3.41c-0.299-0.47-0.16-1.09,0.309-1.39
					c0.472-0.299,1.091-0.156,1.39,0.311c0.733,1.155,1.416,2.364,2.025,3.591c0.248,0.498,0.046,1.104-0.452,1.353
					C280.34,136.959,280.187,136.993,280.036,136.993z M211.374,135.738c-0.162,0-0.326-0.039-0.479-0.123
					c-0.488-0.265-0.67-0.875-0.403-1.363c0.654-1.204,1.381-2.388,2.158-3.518c0.314-0.457,0.941-0.573,1.399-0.26
					c0.456,0.315,0.572,0.94,0.257,1.398c-0.737,1.072-1.427,2.196-2.048,3.339C212.077,135.547,211.731,135.738,211.374,135.738z
					 M274.444,128.671c-0.278,0-0.557-0.114-0.756-0.342c-0.857-0.978-1.778-1.921-2.733-2.804
					c-0.407-0.378-0.434-1.017-0.056-1.423c0.376-0.409,1.014-0.434,1.422-0.057c1.007,0.933,1.976,1.927,2.877,2.954
					c0.369,0.417,0.327,1.052-0.09,1.42C274.917,128.588,274.68,128.671,274.444,128.671z M217.268,127.623
					c-0.248,0-0.496-0.093-0.69-0.274c-0.402-0.384-0.42-1.021-0.039-1.423c0.941-0.995,1.946-1.952,2.985-2.848
					c0.422-0.359,1.056-0.312,1.418,0.108c0.361,0.421,0.314,1.056-0.106,1.419c-0.986,0.848-1.941,1.756-2.835,2.702
					C217.801,127.517,217.536,127.623,217.268,127.623z M266.906,122.055c-0.191,0-0.387-0.057-0.56-0.172
					c-1.082-0.727-2.214-1.402-3.361-2.011c-0.49-0.259-0.678-0.869-0.418-1.359c0.262-0.49,0.87-0.679,1.359-0.419
					c1.21,0.642,2.4,1.354,3.541,2.118c0.462,0.312,0.584,0.936,0.275,1.397C267.548,121.898,267.23,122.055,266.906,122.055z
					 M225.041,121.287c-0.336,0-0.665-0.169-0.855-0.478c-0.293-0.472-0.146-1.092,0.325-1.385c1.168-0.723,2.384-1.392,3.615-1.985
					c0.498-0.242,1.102-0.032,1.344,0.469c0.241,0.499,0.031,1.101-0.468,1.342c-1.169,0.565-2.323,1.2-3.434,1.885
					C225.405,121.238,225.221,121.287,225.041,121.287z M257.922,117.593c-0.108,0-0.219-0.018-0.326-0.054
					c-1.232-0.422-2.5-0.782-3.767-1.073c-0.541-0.125-0.88-0.665-0.755-1.206c0.125-0.542,0.666-0.881,1.204-0.755
					c1.334,0.307,2.669,0.686,3.97,1.131c0.522,0.181,0.806,0.752,0.625,1.278C258.731,117.331,258.34,117.593,257.922,117.593z
					 M234.178,117.161c-0.433,0-0.831-0.281-0.963-0.715c-0.161-0.532,0.141-1.095,0.672-1.254c1.314-0.396,2.662-0.729,4.007-0.984
					c0.55-0.1,1.073,0.254,1.177,0.799c0.104,0.545-0.254,1.073-0.8,1.178c-1.274,0.241-2.555,0.557-3.802,0.934
					C234.373,117.147,234.274,117.161,234.178,117.161z M248.094,115.608c-0.025,0-0.049-0.001-0.072-0.003
					c-1.291-0.089-2.616-0.112-3.916-0.07c-0.533,0.04-1.02-0.418-1.038-0.973c-0.018-0.556,0.417-1.021,0.973-1.039
					c1.365-0.044,2.763-0.021,4.122,0.075c0.555,0.037,0.973,0.519,0.935,1.072C249.06,115.203,248.618,115.608,248.094,115.608z"/>
			</g>
		</g>
	</g>
	<g>
		<g>
			<g>
				<rect x="278.069" y="147.198" fill="#F2F2F2" width="11.988" height="11.987"/>
			</g>
		</g>
		<g>
			<g>
				<path fill="#312E2E" d="M290.057,160.092h-11.988c-0.501,0-0.905-0.403-0.905-0.905v-11.987c0-0.499,0.404-0.905,0.905-0.905
					h11.988c0.499,0,0.904,0.406,0.904,0.905v11.987C290.961,159.688,290.556,160.092,290.057,160.092z M278.973,158.281h10.178
					v-10.178h-10.178V158.281z"/>
			</g>
		</g>
	</g>
	<g>
		<g>
			<g>
				<rect x="200.701" y="147.198" fill="#F2F2F2" width="11.986" height="11.987"/>
			</g>
		</g>
		<g>
			<g>
				<path fill="#312E2E" d="M212.688,160.092h-11.986c-0.5,0-0.905-0.403-0.905-0.905v-11.987c0-0.499,0.405-0.905,0.905-0.905
					h11.986c0.5,0,0.904,0.406,0.904,0.905v11.987C213.592,159.688,213.188,160.092,212.688,160.092z M201.605,158.281h10.18
					v-10.178h-10.18V158.281z"/>
			</g>
		</g>
	</g>
	<g>
		<g>
			<g>
				<rect x="239.384" y="184.919" fill="#F2F2F2" width="11.987" height="11.987"/>
			</g>
		</g>
		<g>
			<g>
				<path fill="#312E2E" d="M251.372,197.812h-11.987c-0.5,0-0.905-0.405-0.905-0.905V184.92c0-0.499,0.405-0.904,0.905-0.904
					h11.987c0.5,0,0.905,0.405,0.905,0.904v11.987C252.278,197.406,251.872,197.812,251.372,197.812z M240.29,196.002h10.176
					v-10.178H240.29V196.002z"/>
			</g>
		</g>
	</g>
	<g>
		<g>
			<g>
				<rect x="239.384" y="108.515" fill="#F2F2F2" width="11.987" height="11.987"/>
			</g>
		</g>
		<g>
			<g>
				<path fill="#312E2E" d="M251.372,121.408h-11.987c-0.5,0-0.905-0.406-0.905-0.905v-11.987c0-0.501,0.405-0.905,0.905-0.905
					h11.987c0.5,0,0.905,0.404,0.905,0.905v11.987C252.278,121.002,251.872,121.408,251.372,121.408z M240.29,119.598h10.176V109.42
					H240.29V119.598z"/>
			</g>
		</g>
	</g>
	<g>
		<g>
			<g>
				<path fill="#312E2E" d="M373.079,219.664h-4.023c-0.556,0-1.006-0.451-1.006-1.006c0-0.557,0.45-1.006,1.006-1.006h4.023
					c0.557,0,1.006,0.449,1.006,1.006C374.084,219.213,373.635,219.664,373.079,219.664z M365.032,219.664h-4.021
					c-0.558,0-1.006-0.451-1.006-1.006c0-0.557,0.448-1.006,1.006-1.006h4.021c0.557,0,1.007,0.449,1.007,1.006
					C366.039,219.213,365.588,219.664,365.032,219.664z M356.987,219.664h-4.023c-0.557,0-1.006-0.451-1.006-1.006
					c0-0.557,0.449-1.006,1.006-1.006h4.023c0.555,0,1.006,0.449,1.006,1.006C357.992,219.213,357.541,219.664,356.987,219.664z
					 M348.94,219.664h-4.023c-0.557,0-1.007-0.451-1.007-1.006c0-0.557,0.45-1.006,1.007-1.006h4.023
					c0.555,0,1.005,0.449,1.005,1.006C349.945,219.213,349.494,219.664,348.94,219.664z M340.892,219.664h-4.022
					c-0.557,0-1.006-0.451-1.006-1.006c0-0.557,0.449-1.006,1.006-1.006h4.022c0.556,0,1.007,0.449,1.007,1.006
					C341.899,219.213,341.448,219.664,340.892,219.664z M332.846,219.664h-4.023c-0.557,0-1.006-0.451-1.006-1.006
					c0-0.557,0.449-1.006,1.006-1.006h4.023c0.555,0,1.006,0.449,1.006,1.006C333.852,219.213,333.401,219.664,332.846,219.664z
					 M324.799,219.664h-4.024c-0.556,0-1.005-0.451-1.005-1.006c0-0.557,0.449-1.006,1.005-1.006h4.024
					c0.555,0,1.006,0.449,1.006,1.006C325.805,219.213,325.354,219.664,324.799,219.664z M316.752,219.664h-4.023
					c-0.557,0-1.007-0.451-1.007-1.006c0-0.557,0.45-1.006,1.007-1.006h4.023c0.555,0,1.005,0.449,1.005,1.006
					C317.757,219.213,317.307,219.664,316.752,219.664z M308.704,219.664h-4.022c-0.556,0-1.005-0.451-1.005-1.006
					c0-0.557,0.449-1.006,1.005-1.006h4.022c0.557,0,1.008,0.449,1.008,1.006C309.711,219.213,309.26,219.664,308.704,219.664z
					 M300.659,219.664h-4.024c-0.556,0-1.006-0.451-1.006-1.006c0-0.557,0.45-1.006,1.006-1.006h4.024
					c0.554,0,1.005,0.449,1.005,1.006C301.664,219.213,301.212,219.664,300.659,219.664z M292.611,219.664h-4.022
					c-0.557,0-1.006-0.451-1.006-1.006c0-0.557,0.449-1.006,1.006-1.006h4.022c0.557,0,1.007,0.449,1.007,1.006
					C293.617,219.213,293.167,219.664,292.611,219.664z M284.564,219.664h-4.022c-0.558,0-1.006-0.451-1.006-1.006
					c0-0.557,0.448-1.006,1.006-1.006h4.022c0.556,0,1.006,0.449,1.006,1.006C285.57,219.213,285.119,219.664,284.564,219.664z
					 M276.517,219.664h-4.023c-0.556,0-1.006-0.451-1.006-1.006c0-0.557,0.45-1.006,1.006-1.006h4.023
					c0.555,0,1.006,0.449,1.006,1.006C277.523,219.213,277.072,219.664,276.517,219.664z M268.47,219.664h-4.023
					c-0.557,0-1.007-0.451-1.007-1.006c0-0.557,0.45-1.006,1.007-1.006h4.023c0.555,0,1.005,0.449,1.005,1.006
					C269.475,219.213,269.025,219.664,268.47,219.664z M260.422,219.664h-4.023c-0.556,0-1.005-0.451-1.005-1.006
					c0-0.557,0.449-1.006,1.005-1.006h4.023c0.556,0,1.007,0.449,1.007,1.006C261.429,219.213,260.978,219.664,260.422,219.664z
					 M252.376,219.664h-4.024c-0.556,0-1.006-0.451-1.006-1.006c0-0.557,0.45-1.006,1.006-1.006h4.024
					c0.554,0,1.005,0.449,1.005,1.006C253.381,219.213,252.93,219.664,252.376,219.664z M244.329,219.664h-4.023
					c-0.556,0-1.006-0.451-1.006-1.006c0-0.557,0.45-1.006,1.006-1.006h4.023c0.556,0,1.006,0.449,1.006,1.006
					C245.334,219.213,244.884,219.664,244.329,219.664z M236.282,219.664h-4.023c-0.556,0-1.006-0.451-1.006-1.006
					c0-0.557,0.45-1.006,1.006-1.006h4.023c0.555,0,1.006,0.449,1.006,1.006C237.288,219.213,236.836,219.664,236.282,219.664z
					 M228.235,219.664h-4.022c-0.557,0-1.006-0.451-1.006-1.006c0-0.557,0.449-1.006,1.006-1.006h4.022
					c0.556,0,1.007,0.449,1.007,1.006C229.241,219.213,228.79,219.664,228.235,219.664z M220.188,219.664h-4.022
					c-0.557,0-1.006-0.451-1.006-1.006c0-0.557,0.449-1.006,1.006-1.006h4.022c0.556,0,1.006,0.449,1.006,1.006
					C221.194,219.213,220.743,219.664,220.188,219.664z M212.141,219.664h-4.022c-0.557,0-1.007-0.451-1.007-1.006
					c0-0.557,0.45-1.006,1.007-1.006h4.022c0.555,0,1.006,0.449,1.006,1.006C213.147,219.213,212.696,219.664,212.141,219.664z
					 M204.094,219.664h-4.023c-0.556,0-1.006-0.451-1.006-1.006c0-0.557,0.45-1.006,1.006-1.006h4.023
					c0.555,0,1.006,0.449,1.006,1.006C205.1,219.213,204.649,219.664,204.094,219.664z M196.047,219.664h-4.023
					c-0.556,0-1.006-0.451-1.006-1.006c0-0.557,0.45-1.006,1.006-1.006h4.023c0.555,0,1.006,0.449,1.006,1.006
					C197.053,219.213,196.602,219.664,196.047,219.664z M188,219.664h-4.024c-0.556,0-1.005-0.451-1.005-1.006
					c0-0.557,0.45-1.006,1.005-1.006H188c0.555,0,1.006,0.449,1.006,1.006C189.006,219.213,188.555,219.664,188,219.664z
					 M179.954,219.664h-4.024c-0.556,0-1.006-0.451-1.006-1.006c0-0.557,0.45-1.006,1.006-1.006h4.024
					c0.555,0,1.005,0.449,1.005,1.006C180.959,219.213,180.509,219.664,179.954,219.664z M171.906,219.664h-4.022
					c-0.556,0-1.006-0.451-1.006-1.006c0-0.557,0.45-1.006,1.006-1.006h4.022c0.556,0,1.007,0.449,1.007,1.006
					C172.912,219.213,172.461,219.664,171.906,219.664z M377.1,219.629c-0.521,0-0.962-0.4-1.002-0.93
					c-0.041-0.554,0.374-1.037,0.929-1.079c1.231-0.092,2.431-0.389,3.562-0.88c0.508-0.221,1.103,0.012,1.323,0.522
					c0.222,0.509-0.012,1.103-0.521,1.322c-1.339,0.58-2.756,0.931-4.213,1.041C377.152,219.629,377.125,219.629,377.1,219.629z
					 M384.346,216.486c-0.271,0-0.543-0.109-0.74-0.325c-0.377-0.41-0.35-1.046,0.062-1.423c0.911-0.836,1.671-1.812,2.257-2.896
					c0.265-0.487,0.872-0.671,1.361-0.405c0.488,0.264,0.672,0.875,0.407,1.363c-0.691,1.28-1.589,2.431-2.666,3.419
					C384.832,216.398,384.59,216.486,384.346,216.486z M388.099,209.538c-0.053,0-0.106-0.003-0.161-0.011
					c-0.548-0.09-0.92-0.605-0.832-1.154c0.094-0.584,0.142-1.186,0.145-1.787v-2.066c0-0.557,0.448-1.006,1.005-1.006
					s1.006,0.449,1.006,1.006v2.068c0,0.709-0.06,1.416-0.169,2.105C389.012,209.187,388.584,209.538,388.099,209.538z
					 M388.254,201.501c-0.557,0-1.006-0.45-1.006-1.006v-4.021c0-0.558,0.449-1.008,1.006-1.008s1.006,0.45,1.006,1.008v4.021
					C389.26,201.051,388.811,201.501,388.254,201.501z M388.254,193.455c-0.557,0-1.006-0.452-1.006-1.007v-4.023
					c0-0.556,0.449-1.006,1.006-1.006s1.006,0.45,1.006,1.006v4.023C389.26,193.003,388.811,193.455,388.254,193.455z
					 M388.254,185.407c-0.557,0-1.006-0.45-1.006-1.006v-4.024c0-0.555,0.449-1.005,1.006-1.005s1.006,0.45,1.006,1.005v4.024
					C389.26,184.957,388.811,185.407,388.254,185.407z M388.254,177.359c-0.557,0-1.006-0.45-1.006-1.005v-4.023
					c0-0.557,0.449-1.007,1.006-1.007s1.006,0.45,1.006,1.007v4.023C389.26,176.909,388.811,177.359,388.254,177.359z
					 M388.254,169.313c-0.557,0-1.006-0.451-1.006-1.007v-4.023c0-0.555,0.449-1.005,1.006-1.005s1.006,0.45,1.006,1.005v4.023
					C389.26,168.862,388.811,169.313,388.254,169.313z M388.254,161.266c-0.557,0-1.006-0.449-1.006-1.006v-4.023
					c0-0.555,0.449-1.006,1.006-1.006s1.006,0.451,1.006,1.006v4.023C389.26,160.816,388.811,161.266,388.254,161.266z
					 M388.254,153.219c-0.557,0-1.006-0.449-1.006-1.006v-4.022c0-0.557,0.449-1.006,1.006-1.006s1.006,0.449,1.006,1.006v4.022
					C389.26,152.769,388.811,153.219,388.254,153.219z M388.254,145.172c-0.557,0-1.006-0.45-1.006-1.005v-4.023
					c0-0.556,0.449-1.007,1.006-1.007s1.006,0.451,1.006,1.007v4.023C389.26,144.721,388.811,145.172,388.254,145.172z
					 M388.254,137.125c-0.557,0-1.006-0.45-1.006-1.006v-4.021c0-0.558,0.449-1.008,1.006-1.008s1.006,0.45,1.006,1.008v4.021
					C389.26,136.675,388.811,137.125,388.254,137.125z M388.254,129.078c-0.557,0-1.006-0.451-1.006-1.006v-1.954
					c0-0.556,0.449-1.007,1.006-1.007s1.006,0.451,1.006,1.007v1.954C389.26,128.627,388.811,129.078,388.254,129.078z"/>
			</g>
		</g>
	</g>
	<g>
		<g>
			<g>
				<path fill="#312E2E" d="M329.627,187.133c-0.072,0-0.143-0.004-0.213-0.009h-0.111c-0.07,0.005-0.142,0.009-0.211,0.009
					c-12.176,0-23.802-13.325-24.291-13.894c-0.293-0.339-0.293-0.841,0-1.182c0.489-0.567,12.115-13.895,24.291-13.895
					c0.069,0,0.141,0.004,0.211,0.01h0.111c0.07-0.006,0.141-0.01,0.213-0.01c12.174,0,23.801,13.326,24.29,13.895
					c0.293,0.341,0.293,0.843,0,1.182C353.428,173.807,341.801,187.133,329.627,187.133z M329.338,185.309l0.289,0.014
					c9.944,0,19.983-10.098,22.383-12.674c-2.398-2.575-12.438-12.674-22.383-12.674l-0.25,0.014l-0.205-0.01c0,0-0.005,0-0.008,0
					c-10.013,0-20.058,10.095-22.455,12.67c2.397,2.576,12.437,12.674,22.383,12.674L329.338,185.309z"/>
			</g>
		</g>
	</g>
	<g>
		<g>
			<g>
				<path fill="#EB5B28" d="M329.359,163.094c-2.297,0-4.405,0.812-6.054,2.162c0.998,0.731,1.653,1.904,1.653,3.236
					c0,2.223-1.804,4.023-4.024,4.023c-0.389,0-0.758-0.072-1.115-0.178c-0.002,0.104-0.016,0.206-0.016,0.311
					c0,5.276,4.277,9.557,9.556,9.557c5.279,0,9.557-4.279,9.557-9.557C338.915,167.37,334.637,163.094,329.359,163.094z"/>
			</g>
		</g>
		<g>
			<g>
				<path fill="#312E2E" d="M329.359,183.211c-5.823,0-10.562-4.737-10.562-10.562c0-0.082,0.006-0.164,0.013-0.244
					c0.008-0.312,0.162-0.648,0.415-0.832c0.252-0.184,0.573-0.289,0.876-0.199c0.32,0.094,0.586,0.137,0.834,0.137
					c1.664,0,3.018-1.354,3.018-3.018c0-0.963-0.45-1.847-1.239-2.424c-0.25-0.187-0.402-0.476-0.411-0.785s0.127-0.608,0.368-0.805
					c1.881-1.542,4.256-2.392,6.689-2.392c5.823,0,10.562,4.737,10.562,10.562C339.92,178.473,335.182,183.211,329.359,183.211z
					 M320.853,173.52c0.438,4.307,4.085,7.68,8.506,7.68c4.715,0,8.55-3.836,8.55-8.551s-3.835-8.549-8.55-8.549
					c-1.59,0-3.148,0.445-4.491,1.273c0.7,0.88,1.097,1.981,1.097,3.118C325.963,171.291,323.69,173.568,320.853,173.52z"/>
			</g>
		</g>
	</g>
	<g>
		<g>
			<g>
				<g>
					<path fill="#312E2E" d="M329.365,154.988c-0.499,0-0.903-0.403-0.904-0.902l-0.011-4.569c-0.003-0.499,0.402-0.905,0.902-0.906
						h0.002c0.5,0,0.904,0.404,0.905,0.901l0.011,4.57C330.272,154.58,329.867,154.987,329.365,154.988L329.365,154.988z"/>
				</g>
			</g>
		</g>
		<g>
			<g>
				<g>
					<path fill="#312E2E" d="M329.365,196.166c-0.499,0-0.903-0.402-0.904-0.901l-0.011-4.57c-0.003-0.498,0.402-0.905,0.902-0.906
						h0.002c0.5,0,0.904,0.404,0.905,0.902l0.011,4.569C330.272,195.758,329.867,196.165,329.365,196.166L329.365,196.166z"/>
				</g>
			</g>
		</g>
	</g>
	<g>
		<g>
			<g>
				<g>
					<path fill="#312E2E" d="M296.729,173.559c-0.5,0-0.903-0.404-0.904-0.903c-0.002-0.499,0.402-0.906,0.902-0.907l4.567-0.01
						h0.002c0.499,0,0.905,0.402,0.905,0.903c0.002,0.499-0.402,0.904-0.904,0.905l-4.566,0.012H296.729z"/>
				</g>
			</g>
		</g>
		<g>
			<g>
				<g>
					<path fill="#312E2E" d="M356.766,173.559c-0.499,0-0.903-0.404-0.904-0.903s0.404-0.906,0.902-0.907l4.566-0.01
						c0.001,0,0.004,0,0.004,0c0.498,0,0.903,0.402,0.904,0.903c0.001,0.499-0.402,0.904-0.902,0.905l-4.568,0.012
						C356.768,173.559,356.768,173.559,356.766,173.559z"/>
				</g>
			</g>
		</g>
	</g>
	<g>
		<g>
			<g>
				<path fill="#312E2E" d="M344.901,159.475c-0.186,0-0.373-0.058-0.533-0.176c-0.403-0.295-0.491-0.859-0.196-1.265l2.262-3.103
					c0.295-0.403,0.861-0.493,1.266-0.198c0.403,0.295,0.492,0.86,0.197,1.266l-2.263,3.103
					C345.454,159.344,345.179,159.475,344.901,159.475z"/>
			</g>
		</g>
	</g>
	<g>
		<g>
			<g>
				<path fill="#312E2E" d="M352.385,165.107c-0.285,0-0.564-0.133-0.74-0.381c-0.289-0.409-0.193-0.976,0.216-1.265l3.132-2.221
					c0.408-0.289,0.973-0.193,1.265,0.215c0.288,0.408,0.19,0.974-0.218,1.264l-3.132,2.22
					C352.75,165.052,352.566,165.107,352.385,165.107z"/>
			</g>
		</g>
	</g>
	<g>
		<g>
			<g>
				<path fill="#312E2E" d="M306.236,165.107c-0.182,0-0.363-0.056-0.522-0.168l-3.134-2.22c-0.406-0.29-0.502-0.854-0.214-1.264
					c0.288-0.408,0.854-0.504,1.261-0.215l3.135,2.221c0.405,0.289,0.502,0.854,0.214,1.265
					C306.797,164.975,306.518,165.107,306.236,165.107z"/>
			</g>
		</g>
	</g>
	<g>
		<g>
			<g>
				<path fill="#312E2E" d="M355.515,183.973c-0.181,0-0.364-0.056-0.522-0.166l-3.132-2.224c-0.409-0.289-0.505-0.854-0.216-1.262
					c0.29-0.408,0.853-0.504,1.263-0.215l3.132,2.221c0.408,0.289,0.506,0.855,0.218,1.262
					C356.078,183.84,355.799,183.973,355.515,183.973z"/>
			</g>
		</g>
	</g>
	<g>
		<g>
			<g>
				<path fill="#312E2E" d="M338.902,193.852c-0.369,0-0.716-0.229-0.85-0.599l-1.307-3.612c-0.169-0.471,0.073-0.988,0.546-1.159
					c0.471-0.169,0.987,0.075,1.157,0.544l1.306,3.613c0.17,0.47-0.074,0.987-0.544,1.158
					C339.108,193.833,339.004,193.852,338.902,193.852z"/>
			</g>
		</g>
	</g>
	<g>
		<g>
			<g>
				<path fill="#312E2E" d="M319.967,193.852c-0.103,0-0.205-0.02-0.307-0.055c-0.472-0.171-0.714-0.688-0.544-1.158l1.305-3.613
					c0.171-0.469,0.688-0.713,1.158-0.544c0.471,0.171,0.714,0.688,0.544,1.159l-1.304,3.612
					C320.687,193.622,320.338,193.852,319.967,193.852z"/>
			</g>
		</g>
	</g>
	<g>
		<g>
			<g>
				<path fill="#312E2E" d="M337.598,156.619c-0.104,0-0.205-0.017-0.308-0.055c-0.472-0.168-0.714-0.688-0.545-1.158l1.307-3.611
					c0.169-0.471,0.687-0.713,1.157-0.544s0.715,0.688,0.545,1.159l-1.306,3.61C338.317,156.391,337.969,156.619,337.598,156.619z"
					/>
			</g>
		</g>
	</g>
	<g>
		<g>
			<g>
				<path fill="#312E2E" d="M321.272,156.619c-0.371,0-0.717-0.229-0.851-0.599l-1.305-3.61c-0.17-0.471,0.072-0.99,0.544-1.159
					c0.471-0.169,0.987,0.073,1.159,0.544l1.304,3.611c0.17,0.471-0.073,0.99-0.544,1.158
					C321.479,156.603,321.373,156.619,321.272,156.619z"/>
			</g>
		</g>
	</g>
	<g>
		<g>
			<g>
				<path fill="#312E2E" d="M303.104,183.973c-0.283,0-0.562-0.134-0.737-0.384c-0.289-0.405-0.193-0.973,0.213-1.262l3.134-2.221
					c0.408-0.289,0.972-0.193,1.262,0.215c0.288,0.407,0.191,0.973-0.214,1.262l-3.135,2.224
					C303.467,183.918,303.285,183.973,303.104,183.973z"/>
			</g>
		</g>
	</g>
	<g>
		<g>
			<g>
				<path fill="#312E2E" d="M313.887,159.475c-0.279,0-0.555-0.131-0.732-0.373L310.892,156c-0.294-0.403-0.206-0.971,0.198-1.266
					c0.402-0.295,0.971-0.205,1.265,0.198l2.263,3.103c0.295,0.404,0.207,0.97-0.196,1.265
					C314.259,159.418,314.072,159.475,313.887,159.475z"/>
			</g>
		</g>
	</g>
	<g>
		<g>
			<g>
				<path fill="#312E2E" d="M347.165,190.571c-0.279,0-0.556-0.129-0.732-0.372l-2.262-3.103c-0.296-0.402-0.207-0.971,0.196-1.266
					c0.403-0.294,0.971-0.205,1.266,0.197l2.263,3.103c0.295,0.405,0.206,0.972-0.197,1.266
					C347.537,190.516,347.35,190.571,347.165,190.571z"/>
			</g>
		</g>
	</g>
	<g>
		<g>
			<g>
				<path fill="#312E2E" d="M311.621,190.571c-0.184,0-0.37-0.056-0.53-0.175c-0.404-0.294-0.492-0.859-0.198-1.266l2.263-3.103
					c0.295-0.402,0.862-0.491,1.267-0.197c0.403,0.295,0.491,0.862,0.196,1.266l-2.263,3.103
					C312.178,190.442,311.902,190.571,311.621,190.571z"/>
			</g>
		</g>
	</g>
	<g>
		<g>
			<g>
				<g>
					<path fill="#312E2E" d="M392.108,112.366h-23.89c-2.718,0-4.929-2.212-4.929-4.93V55.341c0-2.717,2.211-4.929,4.929-4.929
						h23.89c2.717,0,4.93,2.212,4.93,4.929v52.096C397.037,110.154,394.824,112.366,392.108,112.366z M368.218,52.224
						c-1.721,0-3.118,1.398-3.118,3.117v52.096c0,1.719,1.397,3.118,3.118,3.118h23.89c1.719,0,3.117-1.399,3.117-3.118V55.341
						c0-1.718-1.398-3.117-3.117-3.117L368.218,52.224L368.218,52.224z"/>
				</g>
			</g>
		</g>
		<g>
			<g>
				<g>
					<rect x="364.194" y="57.353" fill="#F39323" width="31.938" height="46.438"/>
				</g>
			</g>
			<g>
				<g>
					<path fill="#312E2E" d="M396.131,104.798h-31.938c-0.554,0-1.005-0.449-1.005-1.005V57.353c0-0.557,0.451-1.005,1.005-1.005
						h31.938c0.557,0,1.005,0.449,1.005,1.005v46.438C397.136,104.348,396.688,104.798,396.131,104.798z M365.2,102.787h29.925
						V58.359H365.2V102.787z"/>
				</g>
			</g>
		</g>
		<g>
			<g>
				<g>
					<path fill="#312E2E" d="M383.233,55.157h-6.141c-0.5,0-0.906-0.405-0.906-0.906c0-0.5,0.406-0.904,0.906-0.904h6.141
						c0.5,0,0.906,0.405,0.906,0.904C384.139,54.751,383.733,55.157,383.233,55.157z"/>
				</g>
			</g>
		</g>
		<g>
			<g>
				<g>
					<circle fill="#C0292F" cx="380.036" cy="107.458" r="1.76"/>
				</g>
			</g>
			<g>
				<g>
					<path fill="#312E2E" d="M380.037,109.722c-1.248,0-2.264-1.017-2.264-2.265c0-1.247,1.016-2.263,2.264-2.263
						c1.247,0,2.263,1.016,2.263,2.263C382.299,108.706,381.284,109.722,380.037,109.722z M380.037,106.201
						c-0.693,0-1.258,0.563-1.258,1.257c0,0.694,0.563,1.257,1.258,1.257c0.693,0,1.258-0.562,1.258-1.257
						C381.295,106.764,380.731,106.201,380.037,106.201z"/>
				</g>
			</g>
		</g>
		<g>
			<g>
				<g>
					<path fill="#F5F5F5" d="M404.588,103.646c0.028-0.532,0.055-2.587-1.159-3.895c-0.654-0.703-1.536-1.059-2.624-1.059
						c-0.988,0-1.855,0.301-2.519,0.847l-0.039-0.493c-0.329-1.435-1.597-3.109-4.086-3.109c-1.344,0-2.301,0.479-2.952,1.107
						l-0.003-0.009c-0.329-1.435-1.598-3.11-4.086-3.11c-1.284,0-2.243,0.448-2.918,1.078l-0.003-15.733l0.005-0.067l-0.002-0.069
						c-0.032-2.239-1.884-4.061-4.124-4.061c-2.238,0-4.09,1.821-4.123,4.061v24.468c-0.771-1.323-1.812-2.57-2.822-3.454
						c-0.873-0.763-1.681-1.223-2.336-1.33l-1.338-0.222l-0.361,1.307c-0.066,0.238-0.098,0.503-0.098,0.813v13.913
						c-0.25,1.128-2.513,12.793,9.329,17.435c1.146,0.392,1.507,0.646,1.507,3.403v1.511h15.82l1.758,0.028l-0.265-1.735
						c0.01-0.187,0.353-0.935,1.791-2.177l0.203-0.212c0.911-1.158,5.451-7.203,5.451-12.249L404.588,103.646z"/>
				</g>
			</g>
		</g>
		<g>
			<g>
				<g>
					<g>
						<path fill="#312E2E" d="M390.643,100.103c-0.499,0-0.904-0.406-0.904-0.906v-1.921c-0.084-0.37-0.564-1.941-2.616-1.941
							c-2.069,0-2.537,1.597-2.613,1.938v1.348c0,0.5-0.406,0.906-0.906,0.906c-0.499,0-0.905-0.406-0.905-0.906v-1.436
							c0-0.051,0.005-0.101,0.014-0.148c0.2-1.215,1.385-3.514,4.412-3.514c3.028,0,4.213,2.298,4.413,3.513
							c0.01,0.049,0.015,0.099,0.015,0.149v2.011C391.549,99.697,391.144,100.103,390.643,100.103z"/>
					</g>
				</g>
			</g>
			<g>
				<g>
					<g>
						<path fill="#312E2E" d="M397.685,103.046c-0.5,0-0.906-0.405-0.906-0.905v-2.854c-0.083-0.369-0.564-1.94-2.614-1.94
							c-2.27,0-2.613,1.917-2.629,1.998c-0.08,0.494-0.548,0.826-1.04,0.745c-0.492-0.082-0.826-0.549-0.745-1.041
							c0.201-1.215,1.386-3.514,4.414-3.514c3.027,0,4.211,2.298,4.413,3.512c0.009,0.05,0.014,0.1,0.014,0.149v2.943
							C398.59,102.64,398.185,103.046,397.685,103.046z"/>
					</g>
				</g>
			</g>
			<g>
				<g>
					<g>
						<path fill="#312E2E" d="M380.44,136.272c-0.5,0-0.906-0.405-0.906-0.905c0-2.561-0.3-2.775-1.34-3.134
							c-11.795-4.623-9.762-16.428-9.496-17.732v-13.885c0-0.65,0.135-1.154,0.408-1.537c0.32-0.444,0.81-0.688,1.379-0.688
							c2.404,0,6.982,5.249,6.982,8.781c0,0.5-0.406,0.906-0.905,0.906c-0.501,0-0.905-0.406-0.905-0.906
							c0-1.801-1.826-4.511-3.518-5.987c-0.838-0.732-1.375-0.943-1.587-0.979c-0.021,0.071-0.044,0.199-0.044,0.411v13.98
							c0,0.069-0.01,0.141-0.025,0.21c-0.109,0.465-2.575,11.451,8.336,15.728c2.17,0.745,2.527,2.036,2.527,4.833
							C381.346,135.867,380.94,136.272,380.44,136.272z"/>
					</g>
				</g>
			</g>
			<g>
				<g>
					<g>
						<path fill="#312E2E" d="M376.562,113.399c-0.501,0-0.905-0.406-0.905-0.906V79.121c0-0.033,0.001-0.066,0.006-0.1
							c0.062-2.432,2.021-4.351,4.421-4.351c2.438,0,4.426,1.986,4.426,4.427c0,0.004,0,0.007,0,0.01c0,0.005,0,0.01,0,0.014v19.5
							c0,0.5-0.406,0.906-0.906,0.906c-0.499,0-0.905-0.406-0.905-0.906V79.25c-0.004-0.034-0.006-0.068-0.006-0.104
							c0-0.029,0.003-0.063,0.006-0.098c-0.025-1.42-1.188-2.567-2.613-2.567c-1.442,0-2.615,1.173-2.615,2.615
							c0,0.004,0,0.008,0,0.012s0,0.008,0,0.012v33.372C377.467,112.994,377.061,113.399,376.562,113.399z"/>
					</g>
				</g>
			</g>
			<g>
				<g>
					<g>
						<path fill="#312E2E" d="M396.544,136.158c-0.414,0-0.789-0.287-0.885-0.709c-0.248-1.119,1.097-2.562,2.298-3.599
							c0.53-0.677,5.131-6.684,5.131-11.318v-10.091c-0.007-0.038-0.01-0.079-0.01-0.119v-6.821c0.04-0.567-0.025-2.038-0.755-2.82
							c-0.36-0.39-0.857-0.577-1.518-0.577c-1.761,0-2.192,1.33-2.273,1.674v0.596c0,0.5-0.405,0.906-0.904,0.906
							c-0.501,0-0.906-0.405-0.906-0.906v-0.688c0-0.052,0.005-0.102,0.013-0.149c0.188-1.122,1.278-3.244,4.072-3.244
							c1.16,0,2.146,0.402,2.85,1.164c1.416,1.531,1.239,4.013,1.231,4.116l0.003,6.631c0.005,0.039,0.008,0.08,0.008,0.12v10.21
							c0,5.536-5.353,12.235-5.58,12.516c-0.035,0.044-0.075,0.084-0.117,0.121c-0.827,0.706-1.643,1.629-1.757,1.983
							c0.052,0.453-0.247,0.882-0.704,0.983C396.676,136.15,396.609,136.158,396.544,136.158z"/>
					</g>
				</g>
			</g>
		</g>
		<g>
			<g>
				<g>
					<g>
						<path fill="#312E2E" d="M379.869,69.812c-0.5,0-0.905-0.405-0.905-0.905v-2.841c0-0.5,0.405-0.906,0.905-0.906
							s0.906,0.406,0.906,0.906v2.841C380.776,69.407,380.369,69.812,379.869,69.812z"/>
					</g>
				</g>
			</g>
			<g>
				<g>
					<g>
						<path fill="#312E2E" d="M375.211,71.062c-0.314,0-0.617-0.163-0.785-0.453l-1.422-2.461c-0.251-0.435-0.104-0.988,0.33-1.237
							c0.435-0.251,0.985-0.101,1.236,0.331l1.423,2.462c0.25,0.433,0.103,0.987-0.332,1.237
							C375.52,71.023,375.364,71.062,375.211,71.062z"/>
					</g>
				</g>
			</g>
			<g>
				<g>
					<g>
						<path fill="#312E2E" d="M371.796,74.475c-0.153,0-0.311-0.039-0.452-0.122l-2.461-1.423c-0.435-0.25-0.582-0.804-0.331-1.236
							c0.25-0.432,0.804-0.582,1.236-0.332l2.462,1.423c0.434,0.25,0.581,0.803,0.329,1.237
							C372.413,74.312,372.11,74.475,371.796,74.475z"/>
					</g>
				</g>
			</g>
			<g>
				<g>
					<g>
						<path fill="#312E2E" d="M370.547,79.135h-2.841c-0.502,0-0.905-0.405-0.905-0.905s0.403-0.906,0.905-0.906h2.841
							c0.501,0,0.905,0.406,0.905,0.906S371.048,79.135,370.547,79.135z"/>
					</g>
				</g>
			</g>
			<g>
				<g>
					<g>
						<path fill="#312E2E" d="M369.336,85.217c-0.312,0-0.617-0.162-0.784-0.453c-0.251-0.433-0.103-0.986,0.331-1.236l2.461-1.42
							c0.434-0.251,0.987-0.103,1.235,0.333c0.252,0.432,0.104,0.985-0.329,1.234l-2.462,1.42
							C369.646,85.177,369.49,85.217,369.336,85.217z"/>
					</g>
				</g>
			</g>
			<g>
				<g>
					<g>
						<path fill="#312E2E" d="M390.403,85.217c-0.151,0-0.31-0.039-0.451-0.122l-2.462-1.42c-0.433-0.25-0.581-0.803-0.331-1.234
							c0.25-0.435,0.805-0.583,1.236-0.333l2.462,1.42c0.433,0.25,0.581,0.804,0.331,1.236
							C391.021,85.054,390.716,85.217,390.403,85.217z"/>
					</g>
				</g>
			</g>
			<g>
				<g>
					<g>
						<path fill="#312E2E" d="M392.035,79.135h-2.844c-0.5,0-0.906-0.405-0.906-0.905s0.406-0.906,0.906-0.906h2.844
							c0.499,0,0.904,0.406,0.904,0.906S392.534,79.135,392.035,79.135z"/>
					</g>
				</g>
			</g>
			<g>
				<g>
					<g>
						<path fill="#312E2E" d="M387.943,74.475c-0.312,0-0.616-0.163-0.784-0.454c-0.25-0.434-0.102-0.986,0.331-1.236l2.462-1.42
							c0.435-0.251,0.987-0.103,1.236,0.332c0.25,0.433,0.102,0.986-0.331,1.236l-2.462,1.42
							C388.252,74.436,388.096,74.475,387.943,74.475z"/>
					</g>
				</g>
			</g>
			<g>
				<g>
					<g>
						<path fill="#312E2E" d="M384.529,71.062c-0.153,0-0.31-0.039-0.452-0.122c-0.433-0.25-0.581-0.805-0.33-1.237l1.423-2.462
							c0.25-0.432,0.804-0.582,1.235-0.331c0.435,0.25,0.582,0.804,0.332,1.237l-1.424,2.461
							C385.145,70.899,384.842,71.062,384.529,71.062z"/>
					</g>
				</g>
			</g>
		</g>
		<g>
			<g>
				<g>
					<rect x="373.787" y="135.254" fill="#52BDBD" width="30.207" height="13.982"/>
				</g>
			</g>
			<g>
				<g>
					<path fill="#312E2E" d="M403.994,150.243h-30.207c-0.557,0-1.006-0.45-1.006-1.007v-13.982c0-0.557,0.449-1.007,1.006-1.007
						h30.207c0.557,0,1.006,0.45,1.006,1.007v13.982C405,149.793,404.55,150.243,403.994,150.243z M374.793,148.231h28.194v-11.974
						h-28.194V148.231z"/>
				</g>
			</g>
		</g>
	</g>
	<g>
		<g>
			<g>
				<g>
					<path fill="#312E2E" d="M244.127,54.791h-2.265c-0.555,0-1.005-0.45-1.005-1.005s0.45-1.006,1.005-1.006h2.265
						c0.555,0,1.006,0.451,1.006,1.006S244.682,54.791,244.127,54.791z"/>
				</g>
			</g>
		</g>
		<g>
			<g>
				<g>
					<path fill="#312E2E" d="M238.344,54.791h-6.287c-0.555,0-1.006-0.45-1.006-1.005s0.451-1.006,1.006-1.006h6.287
						c0.555,0,1.006,0.451,1.006,1.006S238.899,54.791,238.344,54.791z"/>
				</g>
			</g>
		</g>
		<g>
			<g>
				<g>
					<path fill="#312E2E" d="M256.198,54.791h-6.285c-0.557,0-1.008-0.45-1.008-1.005s0.451-1.006,1.008-1.006h6.285
						c0.556,0,1.007,0.451,1.007,1.006S256.752,54.791,256.198,54.791z"/>
				</g>
			</g>
		</g>
		<g>
			<g>
				<g>
					<path fill="#312E2E" d="M251.043,66.43h-2.265c-0.555,0-1.006-0.45-1.006-1.007c0-0.556,0.451-1.005,1.006-1.005h2.265
						c0.555,0,1.006,0.449,1.006,1.005S251.598,66.43,251.043,66.43z"/>
				</g>
			</g>
		</g>
		<g>
			<g>
				<g>
					<path fill="#312E2E" d="M233.482,66.43h-10.854c-0.556,0-1.006-0.45-1.006-1.007c0-0.556,0.45-1.005,1.006-1.005h10.854
						c0.556,0,1.005,0.449,1.005,1.005S234.037,66.43,233.482,66.43z"/>
				</g>
			</g>
		</g>
		<g>
			<g>
				<g>
					<path fill="#312E2E" d="M244.127,66.43h-6.286c-0.556,0-1.007-0.45-1.007-1.007c0-0.556,0.451-1.005,1.007-1.005h6.286
						c0.555,0,1.006,0.449,1.006,1.005S244.682,66.43,244.127,66.43z"/>
				</g>
			</g>
		</g>
		<g>
			<g>
				<g>
					<path fill="#312E2E" d="M239.098,80.555h-2.264c-0.556,0-1.006-0.45-1.006-1.007c0-0.555,0.45-1.005,1.006-1.005h2.264
						c0.555,0,1.006,0.451,1.006,1.005C240.104,80.105,239.653,80.555,239.098,80.555z"/>
				</g>
			</g>
		</g>
		<g>
			<g>
				<g>
					<path fill="#312E2E" d="M250.037,80.555h-6.286c-0.556,0-1.006-0.45-1.006-1.007c0-0.555,0.45-1.005,1.006-1.005h6.286
						c0.556,0,1.007,0.451,1.007,1.005C251.043,80.105,250.592,80.555,250.037,80.555z"/>
				</g>
			</g>
		</g>
		<g>
			<g>
				<g>
					<path fill="#312E2E" d="M231.198,73.536h-6.286c-0.557,0-1.007-0.451-1.007-1.006c0-0.556,0.45-1.005,1.007-1.005h6.286
						c0.557,0,1.007,0.45,1.007,1.005C232.204,73.084,231.753,73.536,231.198,73.536z"/>
				</g>
			</g>
		</g>
		<g id="XMLID_20_">
			<g>
				<g>
					<g>
						<polygon fill="#F9B03D" points="320.995,46.308 320.995,83.073 299.651,64.01 						"/>
					</g>
				</g>
				<g>
					<g>
						<polygon fill="#F5F5F5" points="320.995,46.308 299.651,64.01 289.18,72.703 278.708,64.01 257.364,46.308 						"/>
					</g>
				</g>
				<g>
					<g>
						<polygon fill="#F9B03D" points="320.995,83.073 257.364,83.073 278.708,64.01 289.18,72.703 299.651,64.01 						"/>
					</g>
				</g>
				<g>
					<g>
						<polygon fill="#F9B03D" points="278.708,64.01 257.364,83.073 257.364,46.308 						"/>
					</g>
				</g>
			</g>
			<g>
				<g>
					<g>
						<path fill="#312E2E" d="M320.995,84.078h-63.632c-0.556,0-1.006-0.451-1.006-1.005V46.308c0-0.557,0.45-1.006,1.006-1.006
							h63.632c0.557,0,1.006,0.45,1.006,1.006v36.765C322,83.627,321.551,84.078,320.995,84.078z M258.37,82.067h61.618V47.314
							H258.37V82.067z"/>
					</g>
				</g>
				<g>
					<g>
						<path fill="#312E2E" d="M289.18,73.708c-0.229,0-0.457-0.078-0.643-0.23l-31.816-26.396c-0.427-0.354-0.486-0.989-0.131-1.417
							c0.354-0.428,0.988-0.484,1.416-0.131l31.174,25.86l31.173-25.86c0.428-0.354,1.062-0.297,1.416,0.131
							c0.354,0.427,0.296,1.062-0.132,1.417l-31.814,26.396C289.637,73.631,289.408,73.708,289.18,73.708z"/>
					</g>
				</g>
				<g>
					<g>
						<path fill="#312E2E" d="M257.364,84.078c-0.274,0-0.551-0.113-0.75-0.335c-0.369-0.414-0.334-1.05,0.08-1.42l21.345-19.062
							c0.416-0.368,1.051-0.334,1.421,0.081c0.37,0.414,0.335,1.05-0.08,1.421l-21.345,19.062
							C257.842,83.994,257.602,84.078,257.364,84.078z"/>
					</g>
				</g>
				<g>
					<g>
						<path fill="#312E2E" d="M320.995,84.078c-0.238,0-0.478-0.084-0.671-0.255L298.981,64.76c-0.414-0.37-0.451-1.006-0.08-1.42
							c0.37-0.415,1.006-0.449,1.42-0.081l21.344,19.062c0.416,0.37,0.451,1.007,0.081,1.42
							C321.547,83.965,321.271,84.078,320.995,84.078z"/>
					</g>
				</g>
			</g>
		</g>
	</g>
	<g>
		<g>
			<g>
				<g>
					<circle fill="#F2F2F2" cx="167.883" cy="218.658" r="19.877"/>
				</g>
			</g>
			<g>
				<g>
					<path fill="#312E2E" d="M167.883,239.441c-11.461,0-20.784-9.324-20.784-20.783s9.323-20.784,20.784-20.784
						c11.459,0,20.782,9.325,20.782,20.784S179.342,239.441,167.883,239.441z M167.883,199.686
						c-10.462,0-18.973,8.511-18.973,18.973c0,10.461,8.511,18.972,18.973,18.972c10.461,0,18.972-8.511,18.972-18.972
						C186.855,208.196,178.345,199.686,167.883,199.686z"/>
				</g>
			</g>
		</g>
		<g>
			<g>
				<g>
					<g>
						
							<path fill="#F39323" stroke="#312E2E" stroke-width="1.8" stroke-linecap="round" stroke-linejoin="round" stroke-miterlimit="10" d="
							M180.474,224.32"/>
					</g>
				</g>
			</g>
			<g>
				<g>
					<g>
						<polygon fill="#F39323" points="171.193,229.078 180.474,224.32 171.193,219.682 171.193,221.992 155.292,221.992 
							155.292,226.77 171.193,226.77 						"/>
					</g>
				</g>
				<g>
					<g>
						<path fill="#312E2E" d="M171.193,229.983c-0.163,0-0.326-0.045-0.471-0.134c-0.27-0.163-0.434-0.456-0.434-0.771v-1.402
							h-14.997c-0.501,0-0.906-0.405-0.906-0.905v-4.777c0-0.5,0.405-0.906,0.906-0.906h14.997v-1.403
							c0-0.314,0.162-0.605,0.43-0.771c0.267-0.166,0.6-0.18,0.879-0.041l9.281,4.639c0.305,0.152,0.499,0.465,0.5,0.807
							c0.001,0.341-0.189,0.655-0.492,0.81l-9.28,4.758C171.477,229.95,171.335,229.983,171.193,229.983z M156.197,225.864h14.997
							c0.501,0,0.906,0.405,0.906,0.905v0.828l6.37-3.269l-6.37-3.184v0.846c0,0.5-0.405,0.906-0.906,0.906h-14.997V225.864z"/>
					</g>
				</g>
			</g>
		</g>
		<g>
			<g>
				<g>
					<g>
						
							<path fill="none" stroke="#312E2E" stroke-width="1.8" stroke-linecap="round" stroke-linejoin="round" stroke-miterlimit="10" d="
							M155.29,212.52"/>
					</g>
				</g>
			</g>
			<g>
				<g>
					<g>
						<path fill="#312E2E" d="M164.566,218.064c-0.137,0-0.276-0.031-0.404-0.097l-9.276-4.639
							c-0.307-0.152-0.499-0.464-0.501-0.806c-0.002-0.34,0.188-0.654,0.492-0.811l9.276-4.758c0.281-0.144,0.617-0.131,0.886,0.033
							s0.433,0.457,0.433,0.771v1.405h15c0.501,0,0.906,0.405,0.906,0.905v4.778c0,0.499-0.405,0.904-0.906,0.904h-15v1.402
							c0,0.313-0.163,0.604-0.429,0.771C164.898,218.02,164.732,218.064,164.566,218.064z M157.293,212.51l6.369,3.186v-0.844
							c0-0.501,0.405-0.906,0.903-0.906h15.001v-2.966h-15.001c-0.499,0-0.903-0.406-0.903-0.906v-0.828L157.293,212.51z"/>
					</g>
				</g>
			</g>
		</g>
	</g>
	<g>
		<g>
			<g>
				<g>
					<circle fill="#52BDBD" cx="28.735" cy="205.588" r="21.378"/>
				</g>
			</g>
		</g>
		<g id="XMLID_19_">
			<g>
				<g>
					<g>
						<path fill="#F5F5F5" d="M22.201,195.801c1.266-0.838,2.699-1.446,4.253-1.748h-0.021l0.703-3.034h3.195l0.704,3.034h-0.021
							c1.548,0.302,2.996,0.904,4.254,1.748l2.634-1.642l2.258,2.257l-1.643,2.633c0.844,1.262,1.453,2.701,1.77,4.242l3.014,0.697
							v3.2l-3.014,0.696c-0.309,1.55-0.917,2.98-1.763,4.248l1.647,2.625l-2.264,2.266l-2.633-1.642
							c-1.259,0.844-2.698,1.453-4.24,1.763l-0.704,3.014h-3.195l-0.697-3.014c-1.546-0.31-2.986-0.919-4.247-1.763l-2.64,1.642
							l-2.257-2.258l1.647-2.64c-0.845-1.261-1.447-2.701-1.756-4.241l-3.027-0.696v-3.2l3.027-0.697
							c0.309-1.541,0.918-2.975,1.763-4.233l-1.649-2.642l2.259-2.262L22.201,195.801z M33.1,205.596
							c0-2.412-1.957-4.361-4.368-4.361s-4.359,1.949-4.359,4.36c0,2.41,1.948,4.367,4.359,4.367
							C31.144,209.963,33.1,208.006,33.1,205.596z"/>
					</g>
				</g>
			</g>
			<g>
				<g>
					<g>
						<path fill="#312E2E" d="M22.194,196.713c-0.5,0-0.904-0.404-0.904-0.904c0-0.251,0.103-0.479,0.269-0.645
							c0.164-0.166,0.393-0.268,0.644-0.268c0.5,0,0.905,0.403,0.905,0.903S22.694,196.713,22.194,196.713z"/>
					</g>
				</g>
				<g>
					<g>
						<path fill="#312E2E" d="M30.333,221.063h-3.195c-0.421,0-0.788-0.29-0.882-0.702l-0.567-2.457
							c-1.238-0.308-2.412-0.795-3.5-1.453l-2.155,1.34c-0.357,0.225-0.82,0.17-1.118-0.127l-2.257-2.258
							c-0.3-0.299-0.353-0.763-0.129-1.119l1.347-2.156c-0.652-1.081-1.138-2.251-1.443-3.489l-2.472-0.57
							c-0.412-0.094-0.703-0.459-0.703-0.882v-3.2c0-0.422,0.292-0.789,0.703-0.883l2.472-0.568c0.306-1.229,0.792-2.397,1.45-3.486
							l-1.346-2.153c-0.223-0.357-0.169-0.82,0.127-1.118l2.257-2.265c0.299-0.3,0.762-0.353,1.121-0.13l2.158,1.349
							c1.094-0.655,2.261-1.137,3.48-1.438l0.575-2.48c0.096-0.41,0.461-0.702,0.882-0.702h3.195c0.421,0,0.787,0.292,0.882,0.702
							l0.574,2.48c1.237,0.305,2.404,0.784,3.484,1.438l2.149-1.341c0.359-0.224,0.823-0.168,1.119,0.129l2.258,2.258
							c0.297,0.297,0.35,0.762,0.128,1.119l-1.34,2.147c0.656,1.085,1.144,2.254,1.455,3.492l2.463,0.568
							c0.411,0.095,0.701,0.461,0.701,0.883v3.2c0,0.423-0.291,0.788-0.701,0.882l-2.459,0.57c-0.305,1.229-0.792,2.4-1.451,3.493
							l1.345,2.144c0.225,0.356,0.171,0.823-0.127,1.121l-2.263,2.266c-0.298,0.297-0.76,0.353-1.12,0.127l-2.147-1.34
							c-1.088,0.658-2.259,1.146-3.493,1.453l-0.575,2.46C31.119,220.773,30.754,221.063,30.333,221.063z M27.858,219.254h1.758
							l0.54-2.314c0.081-0.346,0.355-0.612,0.703-0.683c1.409-0.281,2.726-0.829,3.915-1.626c0.295-0.198,0.682-0.206,0.983-0.018
							l2.021,1.261l1.246-1.246l-1.264-2.013c-0.189-0.303-0.184-0.688,0.013-0.984c0.803-1.2,1.351-2.521,1.628-3.922
							c0.07-0.35,0.337-0.624,0.686-0.705l2.312-0.535v-1.762l-2.312-0.533c-0.346-0.082-0.613-0.354-0.685-0.701
							c-0.289-1.413-0.838-2.73-1.633-3.917c-0.198-0.298-0.205-0.683-0.017-0.984l1.26-2.022l-1.24-1.238l-2.022,1.261
							c-0.303,0.188-0.688,0.181-0.982-0.018c-1.183-0.792-2.502-1.335-3.923-1.61c-0.423-0.082-0.725-0.45-0.732-0.872
							l-0.498-2.146h-1.756l-0.509,2.198c-0.029,0.4-0.314,0.742-0.721,0.82c-1.396,0.271-2.717,0.812-3.927,1.615
							c-0.296,0.192-0.679,0.199-0.979,0.013l-2.027-1.267l-1.24,1.243l1.267,2.031c0.188,0.301,0.183,0.687-0.016,0.982
							c-0.8,1.19-1.347,2.506-1.626,3.905c-0.07,0.351-0.338,0.625-0.686,0.707l-2.325,0.533v1.762l2.325,0.535
							c0.348,0.08,0.615,0.355,0.686,0.704c0.283,1.418,0.829,2.733,1.62,3.915c0.198,0.296,0.205,0.683,0.016,0.982l-1.266,2.028
							l1.239,1.24l2.03-1.263c0.301-0.188,0.685-0.183,0.982,0.019c1.189,0.797,2.509,1.345,3.919,1.625
							c0.35,0.07,0.625,0.338,0.705,0.687L27.858,219.254z"/>
					</g>
				</g>
				<g>
					<g>
						<path fill="#312E2E" d="M28.732,210.869c-2.902,0-5.266-2.367-5.266-5.272c0-2.904,2.362-5.269,5.266-5.269
							c2.908,0,5.273,2.363,5.273,5.269S31.64,210.869,28.732,210.869z M28.732,202.14c-1.905,0-3.456,1.55-3.456,3.456
							c0,1.907,1.551,3.461,3.456,3.461c1.909,0,3.463-1.554,3.463-3.461S30.641,202.14,28.732,202.14z"/>
					</g>
				</g>
				<g>
					<g>
						<path fill="#312E2E" d="M20.392,206.5c-0.499,0-0.905-0.406-0.905-0.903c0-2.476,0.963-4.798,2.712-6.537
							c1.738-1.746,4.06-2.709,6.533-2.709c0.5,0,0.905,0.404,0.905,0.903c0,0.501-0.405,0.905-0.905,0.905
							c-1.988,0-3.854,0.774-5.254,2.179c-1.407,1.402-2.181,3.269-2.181,5.259C21.297,206.094,20.892,206.5,20.392,206.5z"/>
					</g>
				</g>
			</g>
		</g>
	</g>
	<g>
		<g>
			<g>
				<rect x="216.446" y="25.92" fill="#FFFFFF" width="11.609" height="11.61"/>
			</g>
		</g>
		<g>
			<g>
				<path fill="#312E2E" d="M228.055,38.435h-11.609c-0.501,0-0.905-0.406-0.905-0.904V25.92c0-0.5,0.404-0.903,0.905-0.903h11.609
					c0.499,0,0.905,0.404,0.905,0.903v11.61C228.96,38.029,228.554,38.435,228.055,38.435z M217.35,36.625h9.799v-9.8h-9.799V36.625
					z"/>
			</g>
		</g>
	</g>
	<g>
		<g>
			<g>
				<line fill="none" x1="216.446" y1="25.92" x2="228.055" y2="37.531"/>
			</g>
		</g>
		<g>
			<g>
				<path fill="#312E2E" d="M228.055,38.435c-0.232,0-0.465-0.088-0.642-0.266L215.805,26.56c-0.354-0.354-0.354-0.927,0-1.278
					c0.354-0.354,0.926-0.354,1.28,0l11.608,11.608c0.354,0.354,0.354,0.928,0,1.279C228.518,38.347,228.286,38.435,228.055,38.435z
					"/>
			</g>
		</g>
	</g>
	<g>
		<g>
			<g>
				<line fill="none" x1="216.446" y1="37.531" x2="228.055" y2="25.92"/>
			</g>
		</g>
		<g>
			<g>
				<path fill="#312E2E" d="M216.446,38.435c-0.231,0-0.464-0.088-0.641-0.266c-0.354-0.353-0.354-0.926,0-1.279l11.608-11.608
					c0.354-0.354,0.928-0.354,1.28,0c0.354,0.353,0.354,0.926,0,1.278L217.085,38.17C216.909,38.347,216.677,38.435,216.446,38.435z
					"/>
			</g>
		</g>
	</g>
</g>
</svg>
